<svg xmlns="http://www.w3.org/2000/svg" xmlns:xlink="http://www.w3.org/1999/xlink" viewBox="0 0 600 600"><defs><style>.cls-1{fill:url(#Dégradé_sans_nom_157);}.cls-2{fill:url(#Dégradé_sans_nom_168);}.cls-3{fill:#fff;}.cls-4{fill:url(#Dégradé_sans_nom_108);}.cls-5{fill:url(#Dégradé_sans_nom_178);}.cls-6{fill:url(#Dégradé_sans_nom_6);}.cls-7{fill:url(#Dégradé_sans_nom_108-2);}.cls-8{fill:url(#Dégradé_sans_nom_30);}.cls-9{fill:url(#Dégradé_sans_nom_123);}.cls-10{fill:url(#Dégradé_sans_nom_12);}.cls-11{fill:url(#Dégradé_sans_nom_13);}.cls-12{fill:url(#Dégradé_sans_nom_18);}.cls-13{fill:url(#Dégradé_sans_nom_12-2);}.cls-14{fill:url(#Dégradé_sans_nom_108-3);}.cls-15{fill:url(#Dégradé_sans_nom_116);}.cls-16{fill:url(#Dégradé_sans_nom_132);}.cls-17{fill:url(#Dégradé_sans_nom_108-4);}.cls-18{fill:url(#Dégradé_sans_nom_109);}.cls-19{fill:url(#Dégradé_sans_nom_116-2);}.cls-20{fill:url(#Dégradé_sans_nom_178-2);}.cls-21{fill:url(#Dégradé_sans_nom_85);}.cls-22{fill:url(#Dégradé_sans_nom_53);}.cls-23{opacity:0.5;}.cls-24{fill:#282f5d;}.cls-25{fill:url(#Dégradé_sans_nom_89);}.cls-26{fill:#1b1f3e;}.cls-27{fill:url(#Dégradé_sans_nom_131);}.cls-28{fill:url(#Dégradé_sans_nom_108-5);}.cls-29{fill:url(#Dégradé_sans_nom_2);}.cls-30{fill:url(#Dégradé_sans_nom_3);}.cls-31{fill:url(#Dégradé_sans_nom_132-2);}</style><radialGradient id="Dégradé_sans_nom_157" cx="273.72" cy="310.4" r="118.78" gradientUnits="userSpaceOnUse"><stop offset="0.16" stop-color="#3d56a3"/><stop offset="0.61" stop-color="#242c7d"/><stop offset="0.91" stop-color="#171569"/></radialGradient><radialGradient id="Dégradé_sans_nom_168" cx="239.89" cy="299.34" r="89.74" gradientUnits="userSpaceOnUse"><stop offset="0" stop-color="#3d56a3"/><stop offset="0.14" stop-color="#3c54a1" stop-opacity="0.97"/><stop offset="0.3" stop-color="#394f9c" stop-opacity="0.89"/><stop offset="0.47" stop-color="#334694" stop-opacity="0.75"/><stop offset="0.64" stop-color="#2c3989" stop-opacity="0.55"/><stop offset="0.82" stop-color="#22287a" stop-opacity="0.3"/><stop offset="1" stop-color="#171569" stop-opacity="0"/></radialGradient><linearGradient id="Dégradé_sans_nom_108" x1="164.09" y1="464.09" x2="388.65" y2="464.09" gradientUnits="userSpaceOnUse"><stop offset="0.1" stop-color="#4253b2"/><stop offset="0.3" stop-color="#3d4ead"/><stop offset="0.53" stop-color="#2f40a0"/><stop offset="0.78" stop-color="#18298a"/><stop offset="0.92" stop-color="#08197b"/></linearGradient><radialGradient id="Dégradé_sans_nom_178" cx="272.24" cy="171.22" r="63.28" gradientUnits="userSpaceOnUse"><stop offset="0" stop-color="#020202"/><stop offset="1" stop-color="#020202" stop-opacity="0"/></radialGradient><linearGradient id="Dégradé_sans_nom_6" x1="196.66" y1="275.36" x2="433.15" y2="275.36" gradientUnits="userSpaceOnUse"><stop offset="0" stop-color="#ffd200"/><stop offset="0.17" stop-color="#ffce00"/><stop offset="0.33" stop-color="#ffc400"/><stop offset="0.47" stop-color="#ffb100"/><stop offset="0.61" stop-color="#ff9800"/><stop offset="0.69" stop-color="#f80"/><stop offset="0.93" stop-color="#e97300"/></linearGradient><linearGradient id="Dégradé_sans_nom_108-2" x1="163.71" y1="188.97" x2="206.57" y2="188.97" xlink:href="#Dégradé_sans_nom_108"/><linearGradient id="Dégradé_sans_nom_30" x1="172.21" y1="233.2" x2="202.02" y2="233.2" gradientUnits="userSpaceOnUse"><stop offset="0" stop-color="#212155"/><stop offset="0.2" stop-color="#1f1f50" stop-opacity="0.94"/><stop offset="0.43" stop-color="#1a1a43" stop-opacity="0.78"/><stop offset="0.67" stop-color="#12122d" stop-opacity="0.52"/><stop offset="0.92" stop-color="#06060e" stop-opacity="0.14"/><stop offset="1" stop-color="#020202" stop-opacity="0"/></linearGradient><linearGradient id="Dégradé_sans_nom_123" x1="269.07" y1="300.83" x2="361.86" y2="136.53" gradientTransform="translate(59.88) scale(1.02 1)" gradientUnits="userSpaceOnUse"><stop offset="0" stop-color="#020202" stop-opacity="0"/><stop offset="0.17" stop-color="#060613" stop-opacity="0.13"/><stop offset="0.51" stop-color="#101040" stop-opacity="0.46"/><stop offset="0.99" stop-color="#212187" stop-opacity="0.98"/><stop offset="1" stop-color="#212189"/></linearGradient><linearGradient id="Dégradé_sans_nom_12" x1="276.79" y1="252.67" x2="350.95" y2="124.22" gradientUnits="userSpaceOnUse"><stop offset="0" stop-color="#ffd200"/><stop offset="0.77" stop-color="#f27e30"/></linearGradient><linearGradient id="Dégradé_sans_nom_13" x1="303.65" y1="155.64" x2="306.62" y2="151.37" gradientUnits="userSpaceOnUse"><stop offset="0" stop-color="#ffd200" stop-opacity="0"/><stop offset="0.77" stop-color="#e86930"/></linearGradient><linearGradient id="Dégradé_sans_nom_18" x1="222.83" y1="174.11" x2="230.64" y2="162.87" gradientUnits="userSpaceOnUse"><stop offset="0.16" stop-color="#ffd200" stop-opacity="0"/><stop offset="1" stop-color="#e86930"/></linearGradient><linearGradient id="Dégradé_sans_nom_12-2" x1="252.14" y1="184.21" x2="252.14" y2="170.19" xlink:href="#Dégradé_sans_nom_12"/><linearGradient id="Dégradé_sans_nom_108-3" x1="314.19" y1="322.23" x2="436.03" y2="220" xlink:href="#Dégradé_sans_nom_108"/><linearGradient id="Dégradé_sans_nom_116" x1="387" y1="341.41" x2="433.47" y2="341.41" gradientUnits="userSpaceOnUse"><stop offset="0.09" stop-color="#fff"/><stop offset="0.92" stop-color="#e1e1e1"/></linearGradient><linearGradient id="Dégradé_sans_nom_132" x1="169.97" y1="229.38" x2="200.93" y2="229.38" gradientUnits="userSpaceOnUse"><stop offset="0" stop-color="#d22900"/><stop offset="0.24" stop-color="#cc2400"/><stop offset="0.57" stop-color="#ba1800"/><stop offset="0.96" stop-color="#9e0300"/><stop offset="1" stop-color="#9a0000"/></linearGradient><linearGradient id="Dégradé_sans_nom_108-4" x1="389.11" y1="256.98" x2="557.38" y2="171.02" gradientTransform="matrix(0.95, -0.21, 0.22, 0.96, -189.53, 85.45)" xlink:href="#Dégradé_sans_nom_108"/><linearGradient id="Dégradé_sans_nom_109" x1="387.85" y1="150.46" x2="451.41" y2="160.27" gradientUnits="userSpaceOnUse"><stop offset="0.08" stop-color="#08197b"/><stop offset="0.22" stop-color="#18298a"/><stop offset="0.47" stop-color="#2f40a0"/><stop offset="0.7" stop-color="#3d4ead"/><stop offset="0.9" stop-color="#4253b2"/></linearGradient><linearGradient id="Dégradé_sans_nom_116-2" x1="285.57" y1="216.98" x2="358.47" y2="216.98" xlink:href="#Dégradé_sans_nom_116"/><radialGradient id="Dégradé_sans_nom_178-2" cx="294.27" cy="392.16" r="42.24" xlink:href="#Dégradé_sans_nom_178"/><linearGradient id="Dégradé_sans_nom_85" x1="176.49" y1="399.55" x2="176.49" y2="335.54" gradientUnits="userSpaceOnUse"><stop offset="0" stop-color="#212155"/><stop offset="0.33" stop-color="#161638" stop-opacity="0.65"/><stop offset="1" stop-color="#020202" stop-opacity="0"/></linearGradient><linearGradient id="Dégradé_sans_nom_53" x1="119.61" y1="376.78" x2="190.76" y2="376.78" gradientUnits="userSpaceOnUse"><stop offset="0.03" stop-color="#6f562f"/><stop offset="0.22" stop-color="#6c512c"/><stop offset="0.43" stop-color="#634325"/><stop offset="0.66" stop-color="#552c18"/><stop offset="0.9" stop-color="#410b07"/><stop offset="0.96" stop-color="#3b0202"/></linearGradient><linearGradient id="Dégradé_sans_nom_89" x1="242.87" y1="147.13" x2="263.35" y2="147.13" gradientUnits="userSpaceOnUse"><stop offset="0.2" stop-color="#aeb2cb"/><stop offset="0.21" stop-color="#a9aec8"/><stop offset="0.28" stop-color="#8998b8"/><stop offset="0.35" stop-color="#6f85ab"/><stop offset="0.43" stop-color="#5b76a1"/><stop offset="0.53" stop-color="#4d6c9a"/><stop offset="0.64" stop-color="#456695"/><stop offset="0.83" stop-color="#426494"/></linearGradient><linearGradient id="Dégradé_sans_nom_131" x1="408.45" y1="379.01" x2="408.45" y2="277.52" gradientUnits="userSpaceOnUse"><stop offset="0" stop-color="#9a0000"/><stop offset="0.04" stop-color="#9e0300"/><stop offset="0.43" stop-color="#ba1800"/><stop offset="0.76" stop-color="#cc2400"/><stop offset="1" stop-color="#d22900"/></linearGradient><linearGradient id="Dégradé_sans_nom_108-5" x1="358.23" y1="334.69" x2="358.23" y2="434.45" xlink:href="#Dégradé_sans_nom_108"/><radialGradient id="Dégradé_sans_nom_2" cx="333.11" cy="390.6" fy="382.6940428474052" r="28.56" gradientTransform="translate(-98.39 329.38) rotate(-32.08) scale(1 0.72)" gradientUnits="userSpaceOnUse"><stop offset="0.16" stop-color="#6f562f"/><stop offset="0.32" stop-color="#6c512c"/><stop offset="0.5" stop-color="#634325"/><stop offset="0.7" stop-color="#552c18"/><stop offset="0.91" stop-color="#410b07"/><stop offset="0.96" stop-color="#3b0202"/></radialGradient><linearGradient id="Dégradé_sans_nom_3" x1="286.15" y1="389.51" x2="353.61" y2="350.62" gradientUnits="userSpaceOnUse"><stop offset="0.04" stop-color="#3b0202"/><stop offset="0.1" stop-color="#410b07"/><stop offset="0.34" stop-color="#552c18"/><stop offset="0.57" stop-color="#634325"/><stop offset="0.78" stop-color="#6c512c"/><stop offset="0.97" stop-color="#6f562f"/></linearGradient><linearGradient id="Dégradé_sans_nom_132-2" x1="254.2" y1="231.91" x2="305.51" y2="217.19" xlink:href="#Dégradé_sans_nom_132"/></defs><g id="Calque_2" data-name="Calque 2"><path class="cls-1" d="M268.39,427.73A120.21,120.21,0,0,1,153.5,307.64c0-39.32,19.7-74.94,48.9-96.88,20.72,10.74,36.19-8.26,49-17.68,36.83,9.42,96.15,3.95,136.35,76.54,6.1,11,6.13,24.74,6.13,38A120.63,120.63,0,0,1,389,342c-29.54-10.93-64.67,2.78-74.95,29.35C294.28,406.47,268.39,427.73,268.39,427.73Z"/><path class="cls-2" d="M326.27,299.32a93,93,0,0,0-91.47-93c-9.44,6.79-20,10.59-32.4,4.4-.49.18-1.3,1.3-1.8,1.48a120.12,120.12,0,0,0-31.78,154.08,93,93,0,0,0,157.45-67Z"/><path class="cls-3" d="M241.12,222.72c-60.35,5-99.54,95.92-46.17,143.5,54.11,48.22,120.92-14.09,118.62-71.91-1.8-44.83-38.9-73.22-72.45-71.59M185.7,264.49c18.36-28.27,53.48-51.26,92-23-.26,0-24.71,1.11-6.94,27.41,9.6,14.2,10.23,25.59,2.62,48.77-2.73,11.43-3.56,14.88-6,26.65-11.73-28-21.29-51.9-28.85-82.4,6.63-1,14.17-2.09,10.31-6.36-.5-.53-35.49,2.94-35.83,3-2.69.46-3.15,3.62-3.17,3.65-.28,2.5.18,2.46,7.75,2a210.75,210.75,0,0,0,7.87,31.42c-3.58,14.84-7.28,30.19-7.77,53.94-16-31.75-22.35-53.8-23.55-81.37,2.25-1.36,5.28-.83,7.28-2.88,1.36-1.4,2-4.54.33-4.91-6-1.31-10.64,3-16.05,4.1m83.84,99c6.45-27.81,17.17-54.4,23.49-82.25a55.72,55.72,0,0,0,.37-23.12c18.8,29.38,16.64,75-23.86,105.37m-55.07,8.24c-40.68-18.49-48.14-62.31-34.49-96.05.51,33.39,9.86,59.41,34.49,96.05m23.84,3.91a51.27,51.27,0,0,1-14.59-1c-1.57-15.53-2.56-34.94,5.27-68.77a493.88,493.88,0,0,0,30,64,58.22,58.22,0,0,1-20.67,5.83"/><path class="cls-4" d="M388.65,408.19c-12.87,49.14-63.52,96-121,109.63-49.44,11.7-104.33-26.45-103.58-49.89.86-26.41,34-25,50.65,3,25.48,42.85,112.65,12.84,145.17-46.88Z"/><path class="cls-5" d="M317.58,123.38c-49.9-1.5-91.49,20.42-113.41,55.2-14.78,23.46-4.75,37.1,4.62,40,9.57,3,34.34-6.37,42.66-21.5,19.65,12.1,43.27,10.62,62.17,4.58l34.2,4.13"/><path class="cls-6" d="M309.25,431.06c18.45,1.64,48.75-1.78,79.4-22.87,55.29-38.08,49.89-155.73,32.51-204.88s-53.69-82.41-103.58-83.93-91.49,20.42-113.41,55.2c-14.78,23.46-4.75,37.1,4.62,40,9.57,3,34.34-6.37,42.66-21.5,19.65,12.1,43.27,10.62,62.17,4.58l34.2,4.13c-28.74-11.34-65-4.54-83.93,12.1s-6,28.74,8.33,30.24,42.32-11.34,64.26-6.81,28.65,12.57,52.09,33.74c0,0,12.85,51.42,0,71.15-22.28-12.87-62.58,1.7-74.56,29.13Z"/><path class="cls-7" d="M206.57,172.17c-1.32-1.32.84-3.81-.5-2.49-8.93,8.94-30.36,19.29-36.67,22.74-2.41,1.33-4.72,2.4-5.43,4.83a7.35,7.35,0,0,0,2.07,7.19c1.85,1.87,5.69,4.19,13.39,4.19,4.41,0,12.07-1.76,19.35-3.8"/><path class="cls-8" d="M194.34,216.5c7.32,2.93,11.62,19.74,2.54,28.81-7.53,7.53-20,5-24.67-1.73C177,236.25,194.34,216.5,194.34,216.5Z"/><path class="cls-9" d="M384.5,411.19c54.82-36.3,49.47-152,32.24-198.9-24,12.29-59.08,6.08-72.71-1.44-19.72-7.49-43-6.68-61.71-.23a67.65,67.65,0,0,0-21.5,11.75c-18.73,15.86-7.49,28.87,8.26,29.78,19.4,1.13,44.7-10.19,63.71-6.48C351,249.21,368.7,266,380,279.79a6.23,6.23,0,0,1,1.32,2.95c1.34,8.13,6.59,44.25-2.49,61.32C400,347.22,398.87,403,384.5,411.19Z"/><path class="cls-10" d="M421.16,205.31c-12.15,12.74-61.94,15.12-75,1.88,5.74-9.4,2.27-24.57,1-29.86-119.2-18.68-129.19,22.44-146.62,31.3-6.41-9.1-1.43-24.85,4.59-34.42,22.07-35,67.4-53.23,114.48-51.8,40.61,1.22,70.19,17.43,89.74,57.67Z"/><path class="cls-11" d="M293.35,143.5c6.82-4.65,16.36-5.34,26.78,8.06a6,6,0,0,1-.89,8.22C320.72,156,309,142,293.35,143.5Z"/><path class="cls-12" d="M237.45,172c-4.56-4.71-12.53-9.39-21.94-8.47,6.82-4.65,15-7.77,25.38,5.62"/><path class="cls-13" d="M244.17,173.89c-5.42,4.07-3.77,9.08,2.27,9.83s6.51,1.15,12.09-3c6.06-4.54,6.87-9.58,0-10.34S247.19,171.62,244.17,173.89Z"/><path class="cls-14" d="M388.65,411c55.29-38.08,49.89-159.53,32.51-208.68-24.19,12.89-59.59,6.38-73.34-1.52-19.89-7.85-43.39-7-62.25-.23a67.1,67.1,0,0,0-21.68,12.33c-18.9,16.63-7.55,30.28,8.33,31.24,19.57,1.18,45.08-10.69,64.26-6.81,18.33,3.72,40.26,21.29,51.7,35.81a6.7,6.7,0,0,1,1.33,3.09c1.35,8.53,6.64,46.42-2.51,64.34C408.28,343.84,403.14,402.36,388.65,411Z"/><path class="cls-15" d="M432.84,271.87c3.61,51.34-7.82,114-44.19,139.09,14.49-8.6,19.63-67.12-1.65-70.43,9.15-17.92,3.86-55.81,2.51-64.34C402.86,278.32,428.15,280.17,432.84,271.87Z"/><path class="cls-16" d="M194.34,213.89c-7.55-3-26.45,9.82-24.19,21.93s15.87,12.1,24.94,3S201.66,216.81,194.34,213.89Z"/><path class="cls-17" d="M409.32,177.05c-19.55-40.23-49.13-56.44-89.74-57.67-47.08-1.43-92.41,16.81-114.48,51.8-6,9.57-11.24,25.56-6.18,34.3,17.43-8.86,34.85-50.56,154.05-31.88,1.26,5.3,1.78,21.56-4,31,13.1,13.24,60,10.48,72.15-2.27ZM287,153.29c4.21-8,16.59-20.18,30.9-1.79a5.17,5.17,0,0,1-.78,7.15c-13.57,11.3-24.44,6.25-29.52.27A5.09,5.09,0,0,1,287,153.29ZM210.39,175.6c2-7.49,9.87-20.79,25.09-8.12a4.46,4.46,0,0,1,.7,6.1c-9.06,11.92-19,10.64-24.25,6.6A4.36,4.36,0,0,1,210.39,175.6Z"/><path d="M229.11,173.81a6.8,6.8,0,1,1-6.79-6.78A6.79,6.79,0,0,1,229.11,173.81Z"/><path d="M307.75,154.91a6.81,6.81,0,1,1-6.8-6.79A6.8,6.8,0,0,1,307.75,154.91Z"/><path d="M245,170.79c-5.41,4.07-3.77,9.08,2.27,9.83s6.51,1.15,12.09-3c6.06-4.54,6.87-9.57,0-10.34S248,168.53,245,170.79Z"/><path class="cls-18" d="M376.55,140.55c-13.59-1.1-3,9.07,1.5,12.86s37.05,33.27,67.3,24.19,39.32-34,33.26-35.53S404.53,142.82,376.55,140.55Z"/><path class="cls-19" d="M285.57,200.53c16.12,5.68,26.53,22.43,21.22,38.62,10.44-2.14,20.76-3.77,29.69-1.94,30,5.87,24.65-31.71,11.34-37C327.93,192.3,304.43,193.67,285.57,200.53Z"/><path class="cls-20" d="M322.19,411.9s-4.53,26.45-29.49,26.45-14.37-30.24-17.39-49.89-15.11-45.36,3-57.46,40.08,23.44,43.86,37C327.48,386.19,326.73,397.53,322.19,411.9Z"/><path class="cls-21" d="M196.21,399.55c-18.65-15.51-37.24-49.73-39.44-64C175.26,350.47,184.37,372.41,196.21,399.55Z"/><path class="cls-22" d="M155,340.91c-18.46-14.2-39.3-1.52-34.78,20.42,3.73,18,34.18,51.47,56,56.68,18.9,4.54,15.08-15.84,12.1-22.67C183,383.25,164.85,348.46,155,340.91Z"/><g class="cls-23"><path class="cls-24" d="M257.93,152.42a42.4,42.4,0,0,0-6.7.81c-.3,1.11-.61,2.22-.91,3.34a41,41,0,0,0-5.91,1.82c2.28-7.31,4.56-14.31,7-21.11,2.19-.42,4.41-.75,6.58-1,2.39,6.16,4.63,12.76,6.91,19.82a34.45,34.45,0,0,0-6-.51Zm-1.21-4.09c-.69-2.25-1.4-4.46-2.11-6.65-.71,2.4-1.42,4.79-2.11,7.19C253.91,148.63,255.32,148.45,256.72,148.33Z"/><path class="cls-25" d="M256.34,151.89a44.13,44.13,0,0,0-6.69,1.07c-.3,1.12-.6,2.25-.91,3.38a40.61,40.61,0,0,0-5.87,2.07c2.29-7.42,4.53-14.56,6.91-21.43,2.17-.46,4.39-.82,6.58-1.12,2.43,6,4.72,12.47,7,19.37a35,35,0,0,0-6.07-.22C257,154,256.66,152.93,256.34,151.89Zm-1.21-4c-.7-2.21-1.42-4.39-2.14-6.55-.7,2.4-1.4,4.81-2.08,7.24C252.31,148.27,253.72,148,255.13,147.87Z"/><path class="cls-26" d="M242.87,158.41c.51,0,1,0,1.54,0a41,41,0,0,1,5.91-1.82c-.53-.09-1-.16-1.58-.23A40.61,40.61,0,0,0,242.87,158.41Z"/><path class="cls-26" d="M257.28,155c.53.18,1.05.38,1.58.58a34.45,34.45,0,0,1,6,.51c-.51-.31-1-.6-1.53-.87A35,35,0,0,0,257.28,155Z"/><path class="cls-26" d="M256.36,135.86c.54.13,1.08.27,1.61.42,2.39,6.16,4.63,12.76,6.91,19.82-.51-.31-1-.6-1.53-.87C261.08,148.33,258.79,141.91,256.36,135.86Z"/></g><path class="cls-27" d="M398.91,379c1.77-13.09,2.33-23.1-2.61-31.49,9.61-8.72,9.1-60.08,4.29-70a109.5,109.5,0,0,0,17.17.23C422.81,286.33,423.58,346.75,398.91,379Z"/><path class="cls-28" d="M388.65,411c-31.28,20.16-63.54,24.83-82,23.18l5.55-64.08c31.56-43.37,60.83-38.31,81.71-29.07C412.28,349.11,419.62,382.23,388.65,411Z"/><path class="cls-29" d="M343.59,430.54c-14.58,3.64-27.54,4.44-36.92,3.6l5.55-64.08c7.5-10.31,14.87-17.88,22-23.31C353.06,354.16,375.31,405.89,343.59,430.54Z"/><path class="cls-30" d="M315.31,418.78s-4.54,26.46-29.5,26.46-14.36-30.25-17.38-49.9-15.11-45.36,3-57.45,40.07,23.44,43.86,37C320.6,393.07,319.85,404.42,315.31,418.78Z"/><path class="cls-31" d="M306.77,239.21c-12,2.43-24.11,5.52-34.55,4.89-15.88-1-27.23-14.61-8.33-31.24a67.1,67.1,0,0,1,21.68-12.33C301.71,206.21,312.13,223,306.77,239.21Z"/></g></svg>