<svg xmlns="http://www.w3.org/2000/svg" xmlns:xlink="http://www.w3.org/1999/xlink" viewBox="0 0 600 600"><defs><style>.cls-1{fill:url(#Dégradé_sans_nom_574);}.cls-2{fill:url(#Dégradé_sans_nom_574-2);}.cls-3{fill:url(#Dégradé_sans_nom_574-3);}.cls-4{fill:url(#Dégradé_sans_nom_574-4);}.cls-5{fill:url(#Dégradé_sans_nom_574-5);}.cls-6{fill:url(#Dégradé_sans_nom_574-6);}.cls-7{fill:url(#Dégradé_sans_nom_574-7);}.cls-8{fill:url(#Dégradé_sans_nom_574-8);}.cls-9{fill:url(#Dégradé_sans_nom_574-9);}.cls-10{fill:url(#Dégradé_sans_nom_574-10);}.cls-11{fill:url(#Dégradé_sans_nom_574-11);}.cls-12{fill:url(#Dégradé_sans_nom_574-12);}.cls-13{fill:url(#Dégradé_sans_nom_539);}.cls-14{fill:url(#Dégradé_sans_nom_580);}.cls-15{fill:url(#Dégradé_sans_nom_574-13);}.cls-16{fill:url(#Dégradé_sans_nom_574-14);}.cls-17{fill:url(#Dégradé_sans_nom_574-15);}.cls-18{fill:url(#Dégradé_sans_nom_574-16);}.cls-19{fill:url(#Dégradé_sans_nom_574-17);}.cls-20{fill:url(#Dégradé_sans_nom_574-18);}.cls-21{fill:url(#Dégradé_sans_nom_574-19);}.cls-22{fill:url(#Dégradé_sans_nom_574-20);}.cls-23{fill:url(#Dégradé_sans_nom_574-21);}.cls-24{fill:url(#Dégradé_sans_nom_574-22);}.cls-25{fill:url(#Dégradé_sans_nom_574-23);}.cls-26{fill:url(#Dégradé_sans_nom_574-24);}.cls-27{fill:url(#Dégradé_sans_nom_539-2);}.cls-28{fill:url(#Dégradé_sans_nom_582);}.cls-29{fill:url(#Dégradé_sans_nom_121);}.cls-30{fill:url(#Dégradé_sans_nom_445);}.cls-31{fill:url(#Dégradé_sans_nom_63);}.cls-32{fill:url(#Dégradé_sans_nom_51);}.cls-33{fill:url(#Dégradé_sans_nom_63-2);}.cls-34{fill:url(#Dégradé_sans_nom_464);}.cls-35{fill:url(#Dégradé_sans_nom_15);}.cls-36{fill:#fff;}.cls-37{fill:url(#Dégradé_sans_nom_457);}.cls-38{fill:url(#Dégradé_sans_nom_454);}.cls-39{fill:url(#Dégradé_sans_nom_12);}.cls-40{fill:url(#Dégradé_sans_nom_377);}.cls-41{fill:url(#Dégradé_sans_nom_377-2);}.cls-42{fill:url(#Dégradé_sans_nom_63-3);}.cls-43{fill:url(#Dégradé_sans_nom_475);}.cls-44{fill:url(#Dégradé_sans_nom_377-3);}.cls-45{fill:url(#Dégradé_sans_nom_406);}.cls-46{fill:url(#Dégradé_sans_nom_415);}.cls-47{fill:url(#Dégradé_sans_nom_420);}.cls-48{fill:url(#Dégradé_sans_nom_425);}.cls-49{fill:url(#Dégradé_sans_nom_63-4);}.cls-50{fill:url(#Dégradé_sans_nom_377-4);}.cls-51{fill:url(#Dégradé_sans_nom_432);}.cls-52{fill:url(#Dégradé_sans_nom_432-2);}.cls-53,.cls-55,.cls-56{opacity:0.5;}.cls-54,.cls-55,.cls-56{fill:none;stroke-miterlimit:10;}.cls-54{stroke-dasharray:2.01 2.01;stroke:url(#Dégradé_sans_nom_473);}.cls-55{stroke-width:0.85px;stroke-dasharray:1.7 1.7;stroke:url(#Dégradé_sans_nom_473-2);}.cls-56{stroke-dasharray:2 2;stroke:url(#Dégradé_sans_nom_473-3);}.cls-57{fill:url(#Dégradé_sans_nom_487);}</style><linearGradient id="Dégradé_sans_nom_574" x1="405.72" y1="51.4" x2="415.18" y2="36.18" gradientTransform="matrix(-1.28, -0.93, 0.6, -0.82, 863.13, 574.53)" gradientUnits="userSpaceOnUse"><stop offset="0.15"/><stop offset="0.65" stop-color="#363636"/><stop offset="0.71" stop-color="#3c3c3c"/><stop offset="0.79" stop-color="#4d4d4d"/><stop offset="0.88" stop-color="#696969"/><stop offset="0.99" stop-color="#909090"/><stop offset="1" stop-color="#969696"/></linearGradient><linearGradient id="Dégradé_sans_nom_574-2" x1="405.51" y1="62.34" x2="414.98" y2="47.13" xlink:href="#Dégradé_sans_nom_574"/><linearGradient id="Dégradé_sans_nom_574-3" x1="405.3" y1="73.29" x2="414.77" y2="58.07" xlink:href="#Dégradé_sans_nom_574"/><linearGradient id="Dégradé_sans_nom_574-4" x1="405.09" y1="84.24" x2="414.56" y2="69.02" xlink:href="#Dégradé_sans_nom_574"/><linearGradient id="Dégradé_sans_nom_574-5" x1="404.88" y1="95.18" x2="414.35" y2="79.97" xlink:href="#Dégradé_sans_nom_574"/><linearGradient id="Dégradé_sans_nom_574-6" x1="404.68" y1="106.13" x2="414.15" y2="90.91" xlink:href="#Dégradé_sans_nom_574"/><linearGradient id="Dégradé_sans_nom_574-7" x1="404.47" y1="117.08" x2="413.94" y2="101.86" xlink:href="#Dégradé_sans_nom_574"/><linearGradient id="Dégradé_sans_nom_574-8" x1="404.26" y1="128.02" x2="413.73" y2="112.81" xlink:href="#Dégradé_sans_nom_574"/><linearGradient id="Dégradé_sans_nom_574-9" x1="404.05" y1="138.97" x2="413.52" y2="123.75" xlink:href="#Dégradé_sans_nom_574"/><linearGradient id="Dégradé_sans_nom_574-10" x1="403.85" y1="149.91" x2="413.32" y2="134.7" xlink:href="#Dégradé_sans_nom_574"/><linearGradient id="Dégradé_sans_nom_574-11" x1="403.64" y1="160.86" x2="413.11" y2="145.65" xlink:href="#Dégradé_sans_nom_574"/><linearGradient id="Dégradé_sans_nom_574-12" x1="403.43" y1="171.81" x2="412.9" y2="156.59" xlink:href="#Dégradé_sans_nom_574"/><linearGradient id="Dégradé_sans_nom_539" x1="445.86" y1="100.38" x2="464.63" y2="103.21" gradientTransform="matrix(0, -1.04, 0.75, 0, 283.56, 635.19)" gradientUnits="userSpaceOnUse"><stop offset="0.65"/><stop offset="1" stop-color="#363636"/></linearGradient><linearGradient id="Dégradé_sans_nom_580" x1="359.44" y1="103.45" x2="441.31" y2="115.81" gradientUnits="userSpaceOnUse"><stop offset="0.25"/><stop offset="1" stop-color="#363636" stop-opacity="0"/></linearGradient><linearGradient id="Dégradé_sans_nom_574-13" x1="494.53" y1="0.7" x2="503.99" y2="-14.52" gradientTransform="matrix(-1.43, 0.67, -0.43, -0.92, 989.29, -143.84)" xlink:href="#Dégradé_sans_nom_574"/><linearGradient id="Dégradé_sans_nom_574-14" x1="494.32" y1="11.64" x2="503.79" y2="-3.57" gradientTransform="matrix(-1.43, 0.67, -0.43, -0.92, 989.29, -143.84)" xlink:href="#Dégradé_sans_nom_574"/><linearGradient id="Dégradé_sans_nom_574-15" x1="494.11" y1="22.59" x2="503.58" y2="7.38" gradientTransform="matrix(-1.43, 0.67, -0.43, -0.92, 989.29, -143.84)" xlink:href="#Dégradé_sans_nom_574"/><linearGradient id="Dégradé_sans_nom_574-16" x1="493.9" y1="33.54" x2="503.37" y2="18.32" gradientTransform="matrix(-1.43, 0.67, -0.43, -0.92, 989.29, -143.84)" xlink:href="#Dégradé_sans_nom_574"/><linearGradient id="Dégradé_sans_nom_574-17" x1="493.7" y1="44.48" x2="503.16" y2="29.27" gradientTransform="matrix(-1.43, 0.67, -0.43, -0.92, 989.29, -143.84)" xlink:href="#Dégradé_sans_nom_574"/><linearGradient id="Dégradé_sans_nom_574-18" x1="493.49" y1="55.43" x2="502.96" y2="40.21" gradientTransform="matrix(-1.43, 0.67, -0.43, -0.92, 989.29, -143.84)" xlink:href="#Dégradé_sans_nom_574"/><linearGradient id="Dégradé_sans_nom_574-19" x1="493.28" y1="66.38" x2="502.75" y2="51.16" gradientTransform="matrix(-1.43, 0.67, -0.43, -0.92, 989.29, -143.84)" xlink:href="#Dégradé_sans_nom_574"/><linearGradient id="Dégradé_sans_nom_574-20" x1="493.07" y1="77.32" x2="502.54" y2="62.11" gradientTransform="matrix(-1.43, 0.67, -0.43, -0.92, 989.29, -143.84)" xlink:href="#Dégradé_sans_nom_574"/><linearGradient id="Dégradé_sans_nom_574-21" x1="492.86" y1="88.27" x2="502.33" y2="73.05" gradientTransform="matrix(-1.43, 0.67, -0.43, -0.92, 989.29, -143.84)" xlink:href="#Dégradé_sans_nom_574"/><linearGradient id="Dégradé_sans_nom_574-22" x1="492.66" y1="99.22" x2="502.13" y2="84" gradientTransform="matrix(-1.43, 0.67, -0.43, -0.92, 989.29, -143.84)" xlink:href="#Dégradé_sans_nom_574"/><linearGradient id="Dégradé_sans_nom_574-23" x1="492.45" y1="110.16" x2="501.92" y2="94.95" gradientTransform="matrix(-1.43, 0.67, -0.43, -0.92, 989.29, -143.84)" xlink:href="#Dégradé_sans_nom_574"/><linearGradient id="Dégradé_sans_nom_574-24" x1="492.24" y1="121.11" x2="501.71" y2="105.89" gradientTransform="matrix(-1.43, 0.67, -0.43, -0.92, 989.29, -143.84)" xlink:href="#Dégradé_sans_nom_574"/><linearGradient id="Dégradé_sans_nom_539-2" x1="581.38" y1="32.74" x2="600.14" y2="35.58" gradientTransform="translate(892.26 227.01) rotate(180) scale(1.04 0.75)" xlink:href="#Dégradé_sans_nom_539"/><linearGradient id="Dégradé_sans_nom_582" x1="215.06" y1="135.17" x2="289.73" y2="146.44" gradientTransform="translate(-13.86 28.06) rotate(-6.32)" gradientUnits="userSpaceOnUse"><stop offset="0" stop-color="#363636" stop-opacity="0"/><stop offset="0.07" stop-color="#262626" stop-opacity="0.29"/><stop offset="0.58"/></linearGradient><linearGradient id="Dégradé_sans_nom_121" x1="153.5" y1="310.4" x2="394.54" y2="310.4" gradientUnits="userSpaceOnUse"><stop offset="0" stop-color="#ffd200"/><stop offset="0.88" stop-color="#f80"/></linearGradient><radialGradient id="Dégradé_sans_nom_445" cx="239.89" cy="299.34" r="89.74" gradientUnits="userSpaceOnUse"><stop offset="0.12" stop-color="#f80"/><stop offset="1" stop-color="#ffd200" stop-opacity="0"/></radialGradient><linearGradient id="Dégradé_sans_nom_63" x1="164.09" y1="464.09" x2="388.65" y2="464.09" gradientUnits="userSpaceOnUse"><stop offset="0" stop-color="#de1a00"/><stop offset="0.17" stop-color="#d81800"/><stop offset="0.41" stop-color="#c61300"/><stop offset="0.69" stop-color="#aa0c00"/><stop offset="0.99" stop-color="#820100"/><stop offset="1" stop-color="maroon"/></linearGradient><linearGradient id="Dégradé_sans_nom_51" x1="200.35" y1="201.12" x2="347.82" y2="201.12" gradientUnits="userSpaceOnUse"><stop offset="0.12" stop-color="#f80"/><stop offset="0.41" stop-color="#fc8602"/><stop offset="0.6" stop-color="#f38007"/><stop offset="0.76" stop-color="#e47510"/><stop offset="0.91" stop-color="#cf671c"/><stop offset="1" stop-color="#be5b26"/></linearGradient><linearGradient id="Dégradé_sans_nom_63-2" x1="163.71" y1="188.14" x2="209.12" y2="188.14" xlink:href="#Dégradé_sans_nom_63"/><linearGradient id="Dégradé_sans_nom_464" x1="181.25" y1="364.54" x2="175.32" y2="368.28" gradientUnits="userSpaceOnUse"><stop offset="0" stop-color="#f80" stop-opacity="0"/><stop offset="0.13" stop-color="#fd8701" stop-opacity="0.02"/><stop offset="0.28" stop-color="#f98404" stop-opacity="0.1"/><stop offset="0.43" stop-color="#f17e08" stop-opacity="0.21"/><stop offset="0.59" stop-color="#e6770e" stop-opacity="0.38"/><stop offset="0.75" stop-color="#d96d16" stop-opacity="0.59"/><stop offset="0.91" stop-color="#c86220" stop-opacity="0.85"/><stop offset="1" stop-color="#be5b26"/></linearGradient><radialGradient id="Dégradé_sans_nom_15" cx="186.57" cy="232.22" r="15.05" gradientUnits="userSpaceOnUse"><stop offset="0" stop-color="#020202"/><stop offset="0.35" stop-color="#020202"/><stop offset="1" stop-color="#020202" stop-opacity="0"/></radialGradient><linearGradient id="Dégradé_sans_nom_457" x1="249.52" y1="363.74" x2="342.31" y2="199.45" gradientTransform="translate(43.54) scale(1.02 1)" gradientUnits="userSpaceOnUse"><stop offset="0.12" stop-color="#f80" stop-opacity="0"/><stop offset="0.46" stop-color="#e7770e" stop-opacity="0.37"/><stop offset="1" stop-color="#be5b26"/></linearGradient><linearGradient id="Dégradé_sans_nom_454" x1="297.22" y1="438.35" x2="297.22" y2="328.53" gradientUnits="userSpaceOnUse"><stop offset="0" stop-color="#a25b13"/><stop offset="0.16" stop-color="#a45c13" stop-opacity="0.98"/><stop offset="0.31" stop-color="#ab5f11" stop-opacity="0.9"/><stop offset="0.47" stop-color="#b7650f" stop-opacity="0.78"/><stop offset="0.63" stop-color="#c76d0b" stop-opacity="0.6"/><stop offset="0.79" stop-color="#dc7707" stop-opacity="0.38"/><stop offset="0.94" stop-color="#f58302" stop-opacity="0.11"/><stop offset="1" stop-color="#f80" stop-opacity="0"/></linearGradient><linearGradient id="Dégradé_sans_nom_12" x1="252.14" y1="184.21" x2="252.14" y2="170.19" gradientUnits="userSpaceOnUse"><stop offset="0" stop-color="#ffd200"/><stop offset="0.77" stop-color="#f27e30"/></linearGradient><linearGradient id="Dégradé_sans_nom_377" x1="169.97" y1="229.38" x2="200.93" y2="229.38" gradientUnits="userSpaceOnUse"><stop offset="0" stop-color="#1a1a1a"/><stop offset="1"/></linearGradient><linearGradient id="Dégradé_sans_nom_377-2" x1="119.61" y1="376.78" x2="190.76" y2="376.78" xlink:href="#Dégradé_sans_nom_377"/><linearGradient id="Dégradé_sans_nom_63-3" x1="196.66" y1="275.36" x2="433.15" y2="275.36" xlink:href="#Dégradé_sans_nom_63"/><linearGradient id="Dégradé_sans_nom_475" x1="347.82" y1="304.99" x2="433.15" y2="304.99" gradientUnits="userSpaceOnUse"><stop offset="0"/><stop offset="0.76"/></linearGradient><linearGradient id="Dégradé_sans_nom_377-3" x1="254.09" y1="232.07" x2="306.24" y2="217.12" xlink:href="#Dégradé_sans_nom_377"/><radialGradient id="Dégradé_sans_nom_406" cx="300.85" cy="201.46" r="46" gradientTransform="matrix(1, -0.05, 0.02, 0.3, -2.81, 157.69)" gradientUnits="userSpaceOnUse"><stop offset="0" stop-color="maroon"/><stop offset="0.17" stop-color="#8d0400" stop-opacity="0.86"/><stop offset="0.51" stop-color="#b00d00" stop-opacity="0.49"/><stop offset="0.9" stop-color="#de1a00" stop-opacity="0"/></radialGradient><linearGradient id="Dégradé_sans_nom_415" x1="392.84" y1="182.33" x2="393.49" y2="137.13" gradientTransform="matrix(1.04, 0.04, -0.04, 1, -7.87, -15.68)" gradientUnits="userSpaceOnUse"><stop offset="0" stop-color="#b20700" stop-opacity="0"/><stop offset="0.93"/></linearGradient><linearGradient id="Dégradé_sans_nom_420" x1="400.85" y1="164.62" x2="449.47" y2="136.55" gradientUnits="userSpaceOnUse"><stop offset="0" stop-color="#a60500"/><stop offset="0.79" stop-color="#de1a00"/></linearGradient><radialGradient id="Dégradé_sans_nom_425" cx="252.55" cy="175.92" r="10.11" gradientUnits="userSpaceOnUse"><stop offset="0.07"/><stop offset="1" stop-color="#b20700" stop-opacity="0"/></radialGradient><linearGradient id="Dégradé_sans_nom_63-4" x1="308.27" y1="383.46" x2="411.4" y2="383.46" xlink:href="#Dégradé_sans_nom_63"/><linearGradient id="Dégradé_sans_nom_377-4" x1="261.68" y1="390.33" x2="319" y2="390.33" xlink:href="#Dégradé_sans_nom_377"/><linearGradient id="Dégradé_sans_nom_432" x1="275.44" y1="156.55" x2="329.58" y2="156.55" gradientUnits="userSpaceOnUse"><stop offset="0" stop-color="#121212"/><stop offset="0.76"/></linearGradient><linearGradient id="Dégradé_sans_nom_432-2" x1="202.46" y1="173.81" x2="238.74" y2="173.81" xlink:href="#Dégradé_sans_nom_432"/><linearGradient id="Dégradé_sans_nom_473" x1="278.43" y1="156.55" x2="326.59" y2="156.55" gradientUnits="userSpaceOnUse"><stop offset="0" stop-color="#121212"/><stop offset="1" stop-color="#5c5c5c"/></linearGradient><linearGradient id="Dégradé_sans_nom_473-2" x1="204.77" y1="173.9" x2="236.43" y2="173.9" xlink:href="#Dégradé_sans_nom_473"/><linearGradient id="Dégradé_sans_nom_473-3" x1="280.5" y1="222.37" x2="300.49" y2="222.37" xlink:href="#Dégradé_sans_nom_473"/><linearGradient id="Dégradé_sans_nom_487" x1="391.98" y1="329.04" x2="432.33" y2="329.04" gradientUnits="userSpaceOnUse"><stop offset="0.24" stop-color="#4d2500"/><stop offset="0.86" stop-color="#885025"/></linearGradient></defs><g id="Calque_2" data-name="Calque 2"><path class="cls-1" d="M358.24,148.15c1.57-2.16,6.43-1.3,10.87,1.92s6.77,7.57,5.21,9.73l-6.75,8.84c1.57-2.16-.77-6.52-5.21-9.73s-9.3-4.08-10.86-1.92Z"/><path class="cls-2" d="M365,139.33c1.57-2.15,6.43-1.29,10.87,1.93s6.78,7.57,5.21,9.72l-6.74,8.84c1.56-2.15-.78-6.51-5.22-9.73s-9.3-4.07-10.86-1.92Z"/><path class="cls-3" d="M371.82,130.52c1.57-2.15,6.43-1.29,10.87,1.92s6.78,7.57,5.21,9.73L381.16,151c1.56-2.16-.78-6.51-5.22-9.73s-9.3-4.08-10.86-1.92Z"/><path class="cls-4" d="M378.61,121.71c1.57-2.16,6.43-1.3,10.87,1.92s6.78,7.57,5.21,9.73L388,142.2c1.56-2.16-.77-6.52-5.21-9.73s-9.31-4.08-10.87-1.92Z"/><path class="cls-5" d="M385.41,112.89c1.56-2.15,6.42-1.29,10.86,1.93s6.78,7.57,5.21,9.72l-6.74,8.84c1.56-2.15-.77-6.51-5.21-9.73s-9.31-4.07-10.87-1.92Z"/><path class="cls-6" d="M392.2,104.08c1.56-2.15,6.42-1.3,10.86,1.92s6.78,7.57,5.22,9.73l-6.75,8.84c1.56-2.16-.77-6.51-5.21-9.73s-9.31-4.08-10.87-1.92Z"/><path class="cls-7" d="M399,95.27c1.56-2.16,6.42-1.3,10.86,1.92s6.78,7.57,5.22,9.73l-6.75,8.84c1.56-2.16-.77-6.52-5.21-9.73s-9.31-4.08-10.87-1.92Z"/><path class="cls-8" d="M405.78,86.45c1.56-2.15,6.43-1.29,10.87,1.92s6.77,7.58,5.21,9.73l-6.75,8.84c1.56-2.15-.77-6.51-5.21-9.73s-9.31-4.07-10.87-1.92Z"/><path class="cls-9" d="M412.57,77.64c1.56-2.16,6.43-1.3,10.87,1.92s6.77,7.57,5.21,9.73l-6.75,8.84c1.56-2.16-.77-6.51-5.21-9.73s-9.31-4.08-10.87-1.92Z"/><path class="cls-10" d="M419.36,68.83c1.56-2.16,6.43-1.3,10.87,1.92s6.77,7.57,5.21,9.73l-6.75,8.83c1.56-2.15-.77-6.51-5.21-9.72s-9.31-4.08-10.87-1.92Z"/><path class="cls-11" d="M426.15,60c1.56-2.15,6.43-1.29,10.87,1.92s6.77,7.58,5.21,9.73l-6.75,8.84c1.56-2.15-.77-6.51-5.21-9.73S421,66.7,419.4,68.85Z"/><path class="cls-12" d="M432.94,51.2c1.56-2.16,6.43-1.3,10.87,1.92s6.77,7.57,5.21,9.73l-6.75,8.84c1.56-2.16-.77-6.51-5.21-9.73s-9.31-4.08-10.87-1.92Z"/><ellipse class="cls-13" cx="359.7" cy="162.48" rx="4.46" ry="9.92" transform="translate(18.37 360.67) rotate(-54.45)"/><path class="cls-14" d="M443.81,53.12c-4.44-3.22-9.31-4.08-10.87-1.92l-6.43,8.42a2.64,2.64,0,0,0-.36.39l-6.43,8.43a1.92,1.92,0,0,0-.36.39l-6.43,8.42a2.19,2.19,0,0,0-.36.39l-6.43,8.42a2.19,2.19,0,0,0-.36.39l-6.43,8.43a1.67,1.67,0,0,0-.36.39l-6.43,8.42a2.19,2.19,0,0,0-.36.39l-6.43,8.42a2.19,2.19,0,0,0-.36.39L379,121.32a2.25,2.25,0,0,0-.36.39l-6.43,8.42a3.33,3.33,0,0,0-.36.39l-6.43,8.42a3.33,3.33,0,0,0-.36.39l-6.43,8.43a2.25,2.25,0,0,0-.36.39L352,156.34a1.86,1.86,0,0,0-.36.38c-1.43,2,1,6.2,5.48,9.39s9.23,4.14,10.66,2.14a.75.75,0,0,0,.09-.15,2.81,2.81,0,0,1-.29.54l6.75-8.84c1.56-2.16-.77-6.51-5.21-9.73-.55-.4-1.11-.76-1.66-1.09a19,19,0,0,1,1.7,1.11c4.44,3.22,6.78,7.58,5.21,9.73l6.75-8.84c1.57-2.15-.77-6.51-5.21-9.72-.55-.4-1.1-.76-1.66-1.09a19,19,0,0,1,1.7,1.11c4.44,3.22,6.78,7.57,5.22,9.73l6.74-8.84c1.57-2.16-.77-6.51-5.21-9.73a18,18,0,0,0-1.66-1.08q.86.49,1.71,1.11c4.44,3.21,6.77,7.57,5.21,9.73l6.74-8.84c1.57-2.16-.77-6.51-5.21-9.73-.55-.4-1.1-.76-1.66-1.09q.85.49,1.71,1.11c4.44,3.22,6.77,7.58,5.21,9.73l6.74-8.84c1.57-2.15-.77-6.51-5.21-9.72a18.18,18.18,0,0,0-1.66-1.09q.86.49,1.71,1.11c4.44,3.22,6.77,7.57,5.21,9.73l6.75-8.84c1.56-2.16-.78-6.51-5.22-9.73a18,18,0,0,0-1.66-1.08q.86.49,1.71,1.11c4.44,3.21,6.77,7.57,5.21,9.72l6.75-8.83c1.56-2.16-.77-6.51-5.22-9.73-.55-.4-1.1-.76-1.66-1.09q.85.5,1.71,1.11c4.44,3.22,6.77,7.58,5.21,9.73l6.75-8.84c1.56-2.15-.77-6.51-5.21-9.73-.55-.39-1.11-.76-1.67-1.08q.86.49,1.71,1.11c4.44,3.22,6.77,7.57,5.21,9.73l6.75-8.84c1.56-2.16-.77-6.51-5.21-9.73a18.17,18.17,0,0,0-1.67-1.08q.86.49,1.71,1.11c4.44,3.21,6.77,7.57,5.21,9.72l6.75-8.83c1.56-2.16-.77-6.51-5.21-9.73-.55-.4-1.11-.76-1.66-1.09a19,19,0,0,1,1.7,1.11c4.44,3.22,6.77,7.58,5.21,9.73l6.75-8.84c1.56-2.15-.77-6.51-5.21-9.73-.55-.39-1.11-.76-1.67-1.08A17.78,17.78,0,0,1,437.06,62c4.44,3.22,6.77,7.57,5.21,9.73L449,62.85C450.58,60.69,448.25,56.34,443.81,53.12ZM361.47,158.3l.56.38Zm.85.58,0,0a2.31,2.31,0,0,1,.19.14Z"/><path class="cls-15" d="M265.6,195.76c-1.12-2.42,2-6.25,7-8.56s9.91-2.24,11,.18L288,197.57c-1.13-2.41-6.07-2.49-11-.18s-8.09,6.15-7,8.56Z"/><path class="cls-16" d="M261.2,185.54c-1.12-2.42,2-6.25,7-8.56s9.91-2.24,11,.18l4.44,10.19c-1.12-2.41-6.06-2.49-11-.18s-8.09,6.15-7,8.56Z"/><path class="cls-17" d="M256.81,175.32c-1.13-2.42,2-6.25,7-8.56s9.91-2.24,11,.18l4.44,10.19c-1.13-2.41-6.07-2.49-11-.18s-8.09,6.15-7,8.56Z"/><path class="cls-18" d="M252.41,165.1c-1.12-2.42,2-6.25,7-8.56s9.91-2.24,11,.18l4.44,10.19c-1.12-2.41-6.06-2.49-11-.18s-8.09,6.15-7,8.56Z"/><path class="cls-19" d="M248,154.88c-1.13-2.42,2-6.25,7-8.57s9.91-2.23,11,.19l4.43,10.19c-1.12-2.41-6.06-2.49-11-.18s-8.09,6.15-7,8.56Z"/><path class="cls-20" d="M243.62,144.65c-1.12-2.41,2-6.24,7-8.56s9.91-2.23,11,.18l4.44,10.2c-1.13-2.41-6.07-2.49-11-.18s-8.09,6.15-7,8.56Z"/><path class="cls-21" d="M239.22,134.43c-1.12-2.41,2-6.24,7-8.56s9.91-2.23,11,.18l4.44,10.2c-1.12-2.41-6.06-2.5-11-.18s-8.09,6.15-7,8.56Z"/><path class="cls-22" d="M234.83,124.21c-1.13-2.41,2-6.24,7-8.56s9.91-2.23,11,.18l4.44,10.2c-1.13-2.42-6.07-2.5-11-.18s-8.09,6.14-7,8.56Z"/><path class="cls-23" d="M230.43,114c-1.12-2.41,2-6.24,7-8.56s9.91-2.23,11,.18l4.44,10.2c-1.12-2.42-6.06-2.5-11-.18s-8.09,6.14-7,8.56Z"/><path class="cls-24" d="M226,103.77c-1.13-2.41,2-6.24,7-8.56s9.91-2.23,11,.18l4.43,10.2c-1.12-2.42-6.06-2.5-11-.18s-8.09,6.14-7,8.56Z"/><path class="cls-25" d="M221.64,93.55c-1.12-2.41,2-6.25,7-8.56s9.92-2.23,11,.18l4.44,10.2C243,93,238,92.87,233,95.19s-8.09,6.14-7,8.56Z"/><path class="cls-26" d="M217.24,83.33c-1.12-2.41,2-6.25,7-8.56s9.91-2.23,11,.18l4.44,10.2c-1.12-2.42-6.06-2.5-11-.19s-8.09,6.15-7,8.57Z"/><ellipse class="cls-27" cx="278.83" cy="201.46" rx="9.92" ry="4.46" transform="translate(-59.39 138.71) rotate(-25.34)"/><path class="cls-28" d="M287.71,197.07a2.7,2.7,0,0,1,.33.5l-4.44-10.19c-1.12-2.42-6.06-2.5-11-.18a17.14,17.14,0,0,0-1.76.92c.57-.34,1.17-.65,1.8-1,5-2.31,9.91-2.23,11,.18l-4.44-10.19c-1.12-2.42-6.06-2.5-11-.18a18.24,18.24,0,0,0-1.76.92c.57-.34,1.17-.65,1.8-1,5-2.31,9.91-2.23,11,.18l-4.44-10.19c-1.13-2.42-6.07-2.5-11-.18a18.06,18.06,0,0,0-1.75.92,16.94,16.94,0,0,1,1.8-1c5-2.31,9.91-2.23,11,.18l-4.44-10.19c-1.12-2.42-6.06-2.5-11-.18a18.24,18.24,0,0,0-1.76.92,19.13,19.13,0,0,1,1.8-1c5-2.31,9.91-2.23,11,.18L266,146.5c-1.13-2.42-6.07-2.5-11-.19-.61.29-1.2.6-1.76.93a19.13,19.13,0,0,1,1.8-1c5-2.31,9.91-2.23,11,.18l-4.44-10.2c-1.12-2.41-6.06-2.49-11-.18a19.41,19.41,0,0,0-1.76.93,18,18,0,0,1,1.8-1c5-2.32,9.91-2.23,11,.18l-4.44-10.2c-1.12-2.41-6.06-2.49-11-.18-.62.29-1.2.6-1.76.93a19.13,19.13,0,0,1,1.8-1c5-2.32,9.91-2.24,11,.18l-4.44-10.2c-1.13-2.41-6.07-2.49-11-.18-.61.29-1.2.6-1.75.93a16.94,16.94,0,0,1,1.8-1c5-2.32,9.91-2.24,11,.18l-4.44-10.2c-1.12-2.41-6.06-2.49-11-.18a19.41,19.41,0,0,0-1.76.93,19.13,19.13,0,0,1,1.8-1c5-2.32,9.91-2.24,11,.18L244,95.39c-1.13-2.41-6.07-2.49-11-.18-.61.29-1.2.6-1.76.93a19.13,19.13,0,0,1,1.8-1c5-2.32,9.91-2.24,11,.18l-4.44-10.2c-1.12-2.41-6.06-2.49-11-.18-.61.29-1.2.6-1.75.92.56-.33,1.17-.65,1.8-1,5-2.31,9.91-2.23,11,.19L235.24,75c-1.12-2.41-6.06-2.49-11-.18s-8.09,6.15-7,8.56l4.23,9.72a2.27,2.27,0,0,0,.17.5l4.23,9.72a2.27,2.27,0,0,0,.17.5l4.23,9.72a2.24,2.24,0,0,0,.16.5l4.23,9.72a2.27,2.27,0,0,0,.17.5l4.23,9.72a2.91,2.91,0,0,0,.16.5l4.23,9.72a2.27,2.27,0,0,0,.17.5l4.23,9.72a2.54,2.54,0,0,0,.17.51l4.23,9.71a2.5,2.5,0,0,0,.16.51l4.23,9.71a2.35,2.35,0,0,0,.17.51L261,185a2.76,2.76,0,0,0,.16.51l4.23,9.71a2.18,2.18,0,0,0,.17.51l4.11,9.45a2.16,2.16,0,0,0,.16.49c1.05,2.23,5.92,2.13,10.87-.22s8.11-6,7.06-8.27A1.1,1.1,0,0,0,287.71,197.07Zm-10.5.23-.25.11,0,0Zm-.57.27-.6.3Z"/><path class="cls-29" d="M268.39,427.73A120.21,120.21,0,0,1,153.5,307.64c0-39.32,19.7-74.94,48.9-96.88,20.72,10.74,36.19-8.26,49-17.68,36.83,9.42,96.15,3.95,136.35,76.54,6.1,11,4.94,24.79,6.13,38,2.11,23.41-1.74,23.46-5,34.35-29.54-10.93-64.67,2.78-74.95,29.35C294.28,406.47,268.39,427.73,268.39,427.73Z"/><path class="cls-30" d="M326.27,299.32a93,93,0,0,0-91.47-93c-9.44,6.79-20,10.59-32.4,4.4-.49.18-1.3,1.3-1.8,1.48a120.12,120.12,0,0,0-31.78,154.08,93,93,0,0,0,157.45-67Z"/><path class="cls-31" d="M388.65,408.19c-12.87,49.14-63.52,96-121,109.63-49.44,11.7-104.33-26.45-103.58-49.89.86-26.41,34-25,50.65,3,25.48,42.85,112.65,12.84,145.17-46.88Z"/><path class="cls-32" d="M347.82,205.79l-34.2-4.13c-18.9,6-42.52,7.52-62.17-4.58-8.32,15.13-33.09,24.47-42.66,21.5a16.78,16.78,0,0,1-8.44-6.16C231.73,190.66,288.32,162.48,347.82,205.79Z"/><path class="cls-33" d="M208.57,172.17c-1.32-1.32,1.51-5.6.18-4.28-8.93,8.94-33,21.08-39.35,24.53-2.41,1.33-4.72,2.4-5.43,4.83a7.35,7.35,0,0,0,2.07,7.19c1.85,1.87,5.69,4.19,13.39,4.19,4.41,0,12.07-1.76,19.35-3.8"/><path class="cls-34" d="M196.21,399.55c-18.65-15.51-37.24-49.73-39.44-64C175.26,350.47,184.37,372.41,196.21,399.55Z"/><path class="cls-35" d="M194.34,216.5c7.32,2.93,9.83,15.89.75,25-7.53,7.53-18.18,8.81-22.88,2.12C177,236.25,194.34,216.5,194.34,216.5Z"/><path class="cls-36" d="M241.12,222.72c-60.35,5-99.54,95.91-46.17,143.5,54.11,48.22,120.92-14.09,118.62-71.91-1.8-44.83-38.9-73.22-72.45-71.59M185.7,264.49c18.36-28.27,53.48-51.26,92-23-.26,0-24.71,1.11-6.94,27.41,9.6,14.2,10.23,25.59,2.62,48.77-2.73,11.43-3.56,14.88-6,26.65-11.73-28-21.29-51.9-28.85-82.4,6.63-1,14.17-2.09,10.31-6.36-.5-.53-35.49,2.94-35.83,3-2.69.46-3.15,3.62-3.17,3.65-.28,2.5.18,2.46,7.75,2a210.75,210.75,0,0,0,7.87,31.42c-3.58,14.84-7.28,30.19-7.77,53.94-16-31.75-22.35-53.8-23.55-81.37,2.25-1.36,5.28-.83,7.28-2.88,1.36-1.4,2-4.54.33-4.91-6-1.31-10.64,3-16.05,4.1m83.84,99c6.45-27.81,17.17-54.4,23.49-82.25a55.72,55.72,0,0,0,.37-23.12c18.8,29.38,16.64,75-23.86,105.37m-55.07,8.24c-40.68-18.49-48.14-62.31-34.49-96.05.51,33.39,9.86,59.41,34.49,96.05m23.84,3.91a51.3,51.3,0,0,1-14.59-1c-1.57-15.53-2.56-34.94,5.27-68.77a493.88,493.88,0,0,0,30,64,58.22,58.22,0,0,1-20.67,5.83"/><path class="cls-37" d="M384.5,411.19c54.82-36.3,49.47-152,32.24-198.9-24,12.29-59.08,6.08-72.71-1.44-19.72-7.49-43-6.68-61.71-.23a67.65,67.65,0,0,0-21.5,11.75c-18.73,15.86-7.49,28.87,8.26,29.78,19.4,1.13,44.7-10.19,63.71-6.48C351,249.21,368.7,266,380,279.79a6.23,6.23,0,0,1,1.32,2.95c1.34,8.13,6.59,44.25-2.49,61.32C400,347.22,398.87,403,384.5,411.19Z"/><path class="cls-38" d="M322.19,411.9s-4.53,26.45-29.49,26.45-14.37-30.24-17.39-49.89-15.11-45.36,3-57.46,40.08,23.44,43.86,37C327.48,386.19,326.73,397.53,322.19,411.9Z"/><path class="cls-39" d="M244.17,173.89c-5.42,4.07-3.77,9.08,2.27,9.83s6.51,1.15,12.09-3c6.06-4.54,6.87-9.58,0-10.34S247.19,171.62,244.17,173.89Z"/><path class="cls-40" d="M194.34,213.89c-7.55-3-26.45,9.82-24.19,21.93s15.87,12.1,24.94,3S201.66,216.81,194.34,213.89Z"/><path class="cls-41" d="M155,340.91c-18.46-14.2-39.3-1.52-34.78,20.42,3.73,18,34.18,51.47,56,56.68,18.9,4.54,15.08-15.84,12.1-22.67C183,383.25,164.85,348.46,155,340.91Z"/><path class="cls-42" d="M309.25,431.06c18.45,1.64,48.75-1.78,79.4-22.87,55.29-38.08,49.89-155.73,32.51-204.88s-53.69-82.41-103.58-83.93-91.49,20.42-113.41,55.2c-14.78,23.46-4.75,37.1,4.62,40,9.57,3,34.34-6.37,42.66-21.5,19.65,12.1,43.27,10.62,62.17,4.58l34.2,4.13c-28.74-11.34-65-4.54-83.93,12.1s-6,28.74,8.33,30.24,42.32-11.34,64.26-6.81,28.65,12.57,52.09,33.74c0,0,12.85,51.42,0,71.15-22.28-12.87-62.69-1.41-74.56,29.13Z"/><path class="cls-43" d="M357.94,245.31c8.77,5.33,16.78,13.25,30.63,25.75,0,0,11.76,50.85-1.09,70.57,6.35,8.84,29.57,34.53,1.17,66.56,55.29-38.08,49.89-155.73,32.51-204.88-9.76,5.32-24.65,5.32-73.34-1.52C365.84,221.81,357.94,245.31,357.94,245.31Z"/><path class="cls-44" d="M307,238.48c-12,2.42-24.43,6.55-34.88,5.92-15.88-1-27.22-14.62-8.32-31.25,5.82-5.12,15-9.13,23.35-12.15C303.31,206.69,312.38,222.27,307,238.48Z"/><path class="cls-45" d="M283.86,202.2c19.13-7.36,43.46-8.5,64-.41-14-12.62-50.6-28-73.8-.47C276.68,202.46,283.86,202.2,283.86,202.2Z"/><path class="cls-46" d="M404,167.63c4.62,8.29,10.87,20.77,10.87,20.77-.47,6-6.15,7-17.41-2.41-25.12-21-26.32-30.92-27.16-43.22C369.71,134.72,395.83,155.1,404,167.63Z"/><path class="cls-47" d="M376.55,140.55c-13.59-1.1-3,9.07,1.5,12.86s37.05,33.27,67.3,24.19,39.32-34,33.26-35.53S404.53,142.82,376.55,140.55Z"/><path class="cls-48" d="M244.29,172c-5.61,4.81-3.91,10.73,2.35,11.62s6.75,1.36,12.54-3.57c6.28-5.36,7.12-11.32,0-12.23S247.42,169.33,244.29,172Z"/><path d="M245,170.79c-5.41,4.07-3.77,9.08,2.27,9.83s6.51,1.15,12.09-3c6.06-4.54,6.87-9.57,0-10.34S248,168.53,245,170.79Z"/><path class="cls-49" d="M390.25,409.85C359,430,326.72,434.68,308.27,433L313.83,369c31.56-43.37,60.82-38.31,81.71-29.07C413.89,348,421.22,381.12,390.25,409.85Z"/><path class="cls-50" d="M315.31,418.78s-4.54,26.46-29.5,26.46-14.36-30.25-17.38-49.9-15.11-45.36,3-57.45,40.07,23.44,43.86,37C320.6,393.07,319.85,404.42,315.31,418.78Z"/><path class="cls-51" d="M310.92,123.29c-14.05.83-35.48,24.83-35.48,38.49,0,8.46,28.89,28.05,35.48,28.05s15.35-16,18-28.05C331.3,150.87,327.67,122.3,310.92,123.29Z"/><path class="cls-52" d="M226.94,148.64c5.21,7.91,10.34,14.66,11.71,22.58,1.16,6.64-10.26,27.76-14.34,27.76S204.09,187,202.46,177.45C207.41,167.64,216.23,157.87,226.94,148.64Z"/><path class="cls-36" d="M307.75,154.91a6.81,6.81,0,1,1-6.8-6.79A6.8,6.8,0,0,1,307.75,154.91Z"/><path class="cls-36" d="M229.11,173.81a6.8,6.8,0,1,1-6.79-6.78A6.79,6.79,0,0,1,229.11,173.81Z"/><g class="cls-53"><path class="cls-54" d="M309.84,127.57c-12.24.73-30.92,21.64-30.91,33.54,0,7.37,25.16,24.44,30.91,24.44s13.37-14,15.67-24.44C327.6,151.6,324.43,126.71,309.84,127.57Z"/></g><path class="cls-55" d="M226,152.43c4.43,6.72,8.79,12.45,10,19.18,1,5.64-8.71,23.57-12.18,23.57s-17.17-10.13-18.56-18.28"/><path class="cls-56" d="M280.7,204.73c14.47,6.11,22.5,20.49,18.08,35.6"/><path class="cls-57" d="M393.27,305c6.1-1.05,36.33-.39,39.06,2.76-.11,6.26-5,40.29-8.1,45.8-10.81-1.42-13.78-19.34-32.25-23.77C392,329.78,394.16,310,393.27,305Z"/></g></svg>