<svg xmlns="http://www.w3.org/2000/svg" xmlns:xlink="http://www.w3.org/1999/xlink" viewBox="0 0 600 600"><defs><style>.cls-1{fill:url(#Dégradé_sans_nom_148);}.cls-2{fill:url(#Dégradé_sans_nom_34);}.cls-3{fill:url(#Dégradé_sans_nom_24);}.cls-4{fill:url(#Dégradé_sans_nom_17);}.cls-5{fill:url(#Dégradé_sans_nom_148-2);}.cls-6{fill:url(#Dégradé_sans_nom_34-2);}.cls-7{fill:url(#Dégradé_sans_nom_24-2);}.cls-8{fill:url(#Dégradé_sans_nom_17-2);}.cls-9{fill:url(#Dégradé_sans_nom_148-3);}.cls-10{fill:url(#Dégradé_sans_nom_10);}.cls-11{fill:url(#Dégradé_sans_nom_36);}.cls-12{fill:url(#Dégradé_sans_nom_17-3);}.cls-13{fill:url(#Dégradé_sans_nom_157);}.cls-14{fill:url(#Dégradé_sans_nom_168);}.cls-15{fill:#fff;}.cls-16{fill:url(#Dégradé_sans_nom_79);}.cls-17{fill:url(#Dégradé_sans_nom_178);}.cls-18{fill:url(#Dégradé_sans_nom_6);}.cls-19{fill:url(#Dégradé_sans_nom_147);}.cls-20{fill:url(#Dégradé_sans_nom_30);}.cls-21,.cls-22,.cls-29,.cls-30{opacity:0.5;}.cls-21{fill:url(#Dégradé_sans_nom_74);}.cls-22{fill:url(#Dégradé_sans_nom_74-2);}.cls-23{fill:url(#Dégradé_sans_nom_18);}.cls-24{fill:url(#Dégradé_sans_nom_12);}.cls-25{fill:url(#Dégradé_sans_nom_98);}.cls-26{fill:url(#Dégradé_sans_nom_85);}.cls-27{fill:url(#Dégradé_sans_nom_98-2);}.cls-28{fill:url(#Dégradé_sans_nom_98-3);}.cls-29{fill:url(#Dégradé_sans_nom_74-3);}.cls-30{fill:url(#Dégradé_sans_nom_74-4);}.cls-31{fill:url(#Dégradé_sans_nom_134);}.cls-32{fill:url(#Dégradé_sans_nom_98-4);}.cls-33{fill:url(#Dégradé_sans_nom_98-5);}.cls-34{fill:url(#Dégradé_sans_nom_134-2);}.cls-35{fill:url(#Dégradé_sans_nom_134-3);}.cls-36{fill:url(#Dégradé_sans_nom_178-2);}.cls-37{fill:url(#Dégradé_sans_nom_134-4);}.cls-38{fill:url(#Dégradé_sans_nom_98-6);}.cls-39{fill:url(#Dégradé_sans_nom_98-7);}.cls-40{fill:url(#Dégradé_sans_nom_127);}.cls-41{fill:url(#Dégradé_sans_nom_98-8);}.cls-42{fill:url(#Dégradé_sans_nom_580);}</style><linearGradient id="Dégradé_sans_nom_148" x1="239.49" y1="114.89" x2="257.34" y2="117.58" gradientTransform="translate(153.93 -53.42) rotate(9.76)" gradientUnits="userSpaceOnUse"><stop offset="0.03" stop-color="#6f562f"/><stop offset="0.22" stop-color="#6c512c"/><stop offset="0.43" stop-color="#634325"/><stop offset="0.66" stop-color="#552c18"/><stop offset="0.9" stop-color="#410b07"/><stop offset="0.96" stop-color="#3b0202"/></linearGradient><linearGradient id="Dégradé_sans_nom_34" x1="442.04" y1="77.58" x2="458.83" y2="77.58" gradientTransform="translate(-64.11 31.21) rotate(-4.37)" gradientUnits="userSpaceOnUse"><stop offset="0" stop-color="#013500"/><stop offset="0.3" stop-color="#065400"/><stop offset="0.76" stop-color="#0d8000"/><stop offset="1" stop-color="#109100"/></linearGradient><linearGradient id="Dégradé_sans_nom_24" x1="761.34" y1="152.75" x2="740.11" y2="184.94" gradientTransform="matrix(-0.87, -0.49, -0.49, 0.87, 1119.59, 289.44)" gradientUnits="userSpaceOnUse"><stop offset="0" stop-color="#10ab00"/><stop offset="0.2" stop-color="#0e9d00"/><stop offset="0.58" stop-color="#087600"/><stop offset="1" stop-color="#014500"/></linearGradient><linearGradient id="Dégradé_sans_nom_17" x1="447.42" y1="54.27" x2="455.86" y2="55.55" gradientTransform="translate(-64.11 31.21) rotate(-4.37)" gradientUnits="userSpaceOnUse"><stop offset="0" stop-color="#105500"/><stop offset="0.05" stop-color="#0b4900"/><stop offset="0.15" stop-color="#063b00"/><stop offset="0.27" stop-color="#023200"/><stop offset="0.45" stop-color="#012f00"/><stop offset="1" stop-color="#010000"/></linearGradient><linearGradient id="Dégradé_sans_nom_148-2" x1="253.54" y1="113.18" x2="271.39" y2="115.88" xlink:href="#Dégradé_sans_nom_148"/><linearGradient id="Dégradé_sans_nom_34-2" x1="456.09" y1="79.36" x2="472.87" y2="79.36" xlink:href="#Dégradé_sans_nom_34"/><linearGradient id="Dégradé_sans_nom_24-2" x1="748.64" y1="146.51" x2="727.41" y2="178.7" xlink:href="#Dégradé_sans_nom_24"/><linearGradient id="Dégradé_sans_nom_17-2" x1="461.46" y1="56.05" x2="469.9" y2="57.33" xlink:href="#Dégradé_sans_nom_17"/><linearGradient id="Dégradé_sans_nom_148-3" x1="336.02" y1="93.86" x2="353.87" y2="96.55" gradientTransform="translate(24.58 -10.99) rotate(3.03)" xlink:href="#Dégradé_sans_nom_148"/><linearGradient id="Dégradé_sans_nom_10" x1="540.78" y1="80.75" x2="557.57" y2="80.75" gradientTransform="translate(-182.04 98.61) rotate(-11.1)" gradientUnits="userSpaceOnUse"><stop offset="0" stop-color="#014500"/><stop offset="0.42" stop-color="#087600"/><stop offset="0.8" stop-color="#0e9d00"/><stop offset="1" stop-color="#10ab00"/></linearGradient><linearGradient id="Dégradé_sans_nom_36" x1="677.16" y1="101.04" x2="655.94" y2="133.23" gradientTransform="matrix(-0.93, -0.38, -0.38, 0.93, 1023.77, 216.34)" gradientUnits="userSpaceOnUse"><stop offset="0" stop-color="#10c900"/><stop offset="0.16" stop-color="#0ebb00"/><stop offset="0.47" stop-color="#0a9400"/><stop offset="0.88" stop-color="#035700"/><stop offset="1" stop-color="#014500"/></linearGradient><linearGradient id="Dégradé_sans_nom_17-3" x1="546.16" y1="57.44" x2="554.6" y2="58.72" gradientTransform="translate(-182.04 98.61) rotate(-11.1)" xlink:href="#Dégradé_sans_nom_17"/><radialGradient id="Dégradé_sans_nom_157" cx="273.72" cy="310.4" r="118.78" gradientUnits="userSpaceOnUse"><stop offset="0.16" stop-color="#3d56a3"/><stop offset="0.61" stop-color="#242c7d"/><stop offset="0.91" stop-color="#171569"/></radialGradient><radialGradient id="Dégradé_sans_nom_168" cx="239.89" cy="299.34" r="89.74" gradientUnits="userSpaceOnUse"><stop offset="0" stop-color="#3d56a3"/><stop offset="0.14" stop-color="#3c54a1" stop-opacity="0.97"/><stop offset="0.3" stop-color="#394f9c" stop-opacity="0.89"/><stop offset="0.47" stop-color="#334694" stop-opacity="0.75"/><stop offset="0.64" stop-color="#2c3989" stop-opacity="0.55"/><stop offset="0.82" stop-color="#22287a" stop-opacity="0.3"/><stop offset="1" stop-color="#171569" stop-opacity="0"/></radialGradient><linearGradient id="Dégradé_sans_nom_79" x1="164.09" y1="464.09" x2="388.65" y2="464.09" gradientUnits="userSpaceOnUse"><stop offset="0.1" stop-color="#34b013"/><stop offset="0.52" stop-color="#1a8230"/><stop offset="0.92" stop-color="#00544c"/></linearGradient><radialGradient id="Dégradé_sans_nom_178" cx="272.24" cy="171.22" r="63.28" gradientUnits="userSpaceOnUse"><stop offset="0" stop-color="#020202"/><stop offset="1" stop-color="#020202" stop-opacity="0"/></radialGradient><linearGradient id="Dégradé_sans_nom_6" x1="196.66" y1="275.36" x2="433.15" y2="275.36" gradientUnits="userSpaceOnUse"><stop offset="0" stop-color="#ffd200"/><stop offset="0.17" stop-color="#ffce00"/><stop offset="0.33" stop-color="#ffc400"/><stop offset="0.47" stop-color="#ffb100"/><stop offset="0.61" stop-color="#ff9800"/><stop offset="0.69" stop-color="#f80"/><stop offset="0.93" stop-color="#e97300"/></linearGradient><radialGradient id="Dégradé_sans_nom_147" cx="310.65" cy="194.39" r="10.19" gradientTransform="translate(-281.47 487.61) rotate(-88.3) scale(1 3)" gradientUnits="userSpaceOnUse"><stop offset="0.07" stop-color="#e97300"/><stop offset="0.85" stop-color="#f80" stop-opacity="0"/></radialGradient><linearGradient id="Dégradé_sans_nom_30" x1="172.21" y1="233.2" x2="202.02" y2="233.2" gradientUnits="userSpaceOnUse"><stop offset="0" stop-color="#212155"/><stop offset="0.2" stop-color="#1f1f50" stop-opacity="0.94"/><stop offset="0.43" stop-color="#1a1a43" stop-opacity="0.78"/><stop offset="0.67" stop-color="#12122d" stop-opacity="0.52"/><stop offset="0.92" stop-color="#06060e" stop-opacity="0.14"/><stop offset="1" stop-color="#020202" stop-opacity="0"/></linearGradient><linearGradient id="Dégradé_sans_nom_74" x1="276.79" y1="252.67" x2="350.95" y2="124.22" gradientUnits="userSpaceOnUse"><stop offset="0" stop-color="#020202" stop-opacity="0"/><stop offset="0.28" stop-color="#101001" stop-opacity="0.44"/><stop offset="0.66" stop-color="#1d1d00" stop-opacity="0.86"/><stop offset="1" stop-color="#212100"/></linearGradient><linearGradient id="Dégradé_sans_nom_74-2" x1="301.65" y1="158.26" x2="304.62" y2="153.99" xlink:href="#Dégradé_sans_nom_74"/><linearGradient id="Dégradé_sans_nom_18" x1="222.83" y1="176.94" x2="230.64" y2="165.7" gradientUnits="userSpaceOnUse"><stop offset="0.16" stop-color="#ffd200" stop-opacity="0"/><stop offset="1" stop-color="#e86930"/></linearGradient><linearGradient id="Dégradé_sans_nom_12" x1="252.14" y1="184.21" x2="252.14" y2="170.19" gradientUnits="userSpaceOnUse"><stop offset="0" stop-color="#ffd200"/><stop offset="0.77" stop-color="#f27e30"/></linearGradient><linearGradient id="Dégradé_sans_nom_98" x1="169.97" y1="229.38" x2="200.93" y2="229.38" gradientUnits="userSpaceOnUse"><stop offset="0" stop-color="#105500"/><stop offset="0.14" stop-color="#0e4f00"/><stop offset="0.33" stop-color="#073d00"/><stop offset="0.45" stop-color="#012f00"/><stop offset="1" stop-color="#010000"/></linearGradient><linearGradient id="Dégradé_sans_nom_85" x1="176.49" y1="399.55" x2="176.49" y2="335.54" gradientUnits="userSpaceOnUse"><stop offset="0" stop-color="#212155"/><stop offset="0.33" stop-color="#161638" stop-opacity="0.65"/><stop offset="1" stop-color="#020202" stop-opacity="0"/></linearGradient><linearGradient id="Dégradé_sans_nom_98-2" x1="119.61" y1="376.78" x2="190.76" y2="376.78" xlink:href="#Dégradé_sans_nom_98"/><linearGradient id="Dégradé_sans_nom_98-3" x1="434.1" y1="376.26" x2="449.4" y2="308.9" gradientTransform="matrix(0.95, -0.21, 0.22, 0.96, -226.51, -68.19)" xlink:href="#Dégradé_sans_nom_98"/><linearGradient id="Dégradé_sans_nom_74-3" x1="223.12" y1="217.78" x2="243.16" y2="129.6" xlink:href="#Dégradé_sans_nom_74"/><linearGradient id="Dégradé_sans_nom_74-4" x1="252.59" y1="211.52" x2="272.27" y2="124.92" xlink:href="#Dégradé_sans_nom_74"/><linearGradient id="Dégradé_sans_nom_134" x1="163.71" y1="188.97" x2="206.57" y2="188.97" gradientUnits="userSpaceOnUse"><stop offset="0" stop-color="#10ab00"/><stop offset="0.17" stop-color="#0fa500"/><stop offset="0.39" stop-color="#0d9300"/><stop offset="0.65" stop-color="#087700"/><stop offset="0.94" stop-color="#024f00"/><stop offset="1" stop-color="#014500"/></linearGradient><linearGradient id="Dégradé_sans_nom_98-4" x1="254.32" y1="232.31" x2="302.84" y2="218.4" xlink:href="#Dégradé_sans_nom_98"/><linearGradient id="Dégradé_sans_nom_98-5" x1="347.82" y1="304.99" x2="433.15" y2="304.99" xlink:href="#Dégradé_sans_nom_98"/><linearGradient id="Dégradé_sans_nom_134-2" x1="388.96" y1="362.91" x2="431.5" y2="362.91" xlink:href="#Dégradé_sans_nom_134"/><linearGradient id="Dégradé_sans_nom_134-3" x1="202.85" y1="222.41" x2="386.79" y2="128.44" xlink:href="#Dégradé_sans_nom_134"/><radialGradient id="Dégradé_sans_nom_178-2" cx="294.27" cy="392.16" r="42.24" xlink:href="#Dégradé_sans_nom_178"/><linearGradient id="Dégradé_sans_nom_134-4" x1="358.23" y1="334.69" x2="358.23" y2="434.45" xlink:href="#Dégradé_sans_nom_134"/><linearGradient id="Dégradé_sans_nom_98-6" x1="349.82" y1="334.69" x2="349.82" y2="434.45" xlink:href="#Dégradé_sans_nom_98"/><linearGradient id="Dégradé_sans_nom_98-7" x1="286.64" y1="393.04" x2="365.26" y2="438.43" xlink:href="#Dégradé_sans_nom_98"/><linearGradient id="Dégradé_sans_nom_127" x1="403.34" y1="177.3" x2="437.72" y2="128.27" gradientUnits="userSpaceOnUse"><stop offset="0" stop-color="#014500"/><stop offset="0.42" stop-color="#096900"/><stop offset="0.78" stop-color="#0e8100"/><stop offset="1" stop-color="#108a00"/></linearGradient><linearGradient id="Dégradé_sans_nom_98-8" x1="310.65" y1="216.78" x2="336.6" y2="216.78" xlink:href="#Dégradé_sans_nom_98"/><linearGradient id="Dégradé_sans_nom_580" x1="415.84" y1="169.95" x2="415.99" y2="169.98" gradientUnits="userSpaceOnUse"><stop offset="0.25"/><stop offset="1" stop-color="#363636" stop-opacity="0"/></linearGradient></defs><g id="Calque_2" data-name="Calque 2"><path class="cls-1" d="M392,43.94c-1.58-.27-3,.1-3.09.83l-25.5,116c-.13.73,1.05,1.54,2.63,1.82s3-.1,3.1-.83l25.5-116C394.79,45,393.6,44.21,392,43.94Z"/><path class="cls-2" d="M384,94.1C401.27,79,402.9,68.75,392.67,54.79Z"/><path class="cls-3" d="M378.83,92.26c-9.17-25.69-6.57-30.91,8.55-39.33Z"/><path class="cls-4" d="M393.69,40.93,392.4,44l-.62-.11,0-3.33c-1.18,0-2.1.32-2.2.91l-4.15,19.1c-.13.73,1.05,1.55,2.64,1.82s3-.1,3.09-.83l4.16-19.1C395.44,41.92,394.75,41.3,393.69,40.93Z"/><path class="cls-5" d="M406.16,44.64c-1.58-.27-3,.1-3.09.83l-25.51,116c-.12.74,1.06,1.55,2.64,1.82s3-.1,3.1-.83l25.5-116C408.92,45.73,407.74,44.92,406.16,44.64Z"/><path class="cls-6" d="M398.17,94.8c17.24-15.09,18.87-25.34,8.64-39.3Z"/><path class="cls-7" d="M393,93c-9.17-25.69-6.57-30.9,8.55-39.32Z"/><path class="cls-8" d="M407.83,41.63l-1.29,3.11-.62-.12,0-3.33c-1.17,0-2.09.33-2.19.91L399.6,61.31c-.13.73,1,1.54,2.64,1.81s3-.1,3.09-.83l4.15-19.1C409.58,42.62,408.88,42,407.83,41.63Z"/><path class="cls-9" d="M369.94,41.9c-1.6-.08-2.93.45-3,1.19L355.23,161.24c0,.74,1.23,1.41,2.84,1.49s2.93-.44,3-1.18L372.78,43.39C372.82,42.65,371.55,42,369.94,41.9Z"/><path class="cls-10" d="M367.89,92.65c15.35-17,15.76-27.38,4-40.05Z"/><path class="cls-11" d="M362.51,91.43C350.39,67,352.36,61.51,366.39,51.38Z"/><path class="cls-12" d="M371.25,38.72,370.33,42l-.63,0-.36-3.31c-1.17.11-2,.57-2.07,1.16l-1.89,19.46c0,.74,1.23,1.41,2.83,1.49s2.94-.44,3-1.18l1.88-19.46C373.1,39.49,372.34,39,371.25,38.72Z"/><path class="cls-13" d="M268.39,427.73A120.21,120.21,0,0,1,153.5,307.64c0-39.32,19.7-74.94,48.9-96.88,20.72,10.74,36.19-8.26,49-17.68,36.83,9.42,96.15,3.95,136.35,76.54,6.1,11,6.13,24.74,6.13,38A120.63,120.63,0,0,1,389,342c-29.54-10.93-64.67,2.78-74.95,29.35C294.28,406.47,268.39,427.73,268.39,427.73Z"/><path class="cls-14" d="M326.27,299.32a93,93,0,0,0-91.47-93c-9.44,6.79-20,10.59-32.4,4.4-.49.18-1.3,1.3-1.8,1.48a120.12,120.12,0,0,0-31.78,154.08,93,93,0,0,0,157.45-67Z"/><path class="cls-15" d="M241.12,222.72c-60.35,5-99.54,95.92-46.17,143.5,54.11,48.22,120.92-14.09,118.62-71.91-1.8-44.83-38.9-73.22-72.45-71.59M185.7,264.49c18.36-28.27,53.48-51.26,92-23-.26,0-24.71,1.11-6.94,27.41,9.6,14.2,10.23,25.59,2.62,48.77-2.73,11.43-3.56,14.88-6,26.65-11.73-28-21.29-51.9-28.85-82.4,6.63-1,14.17-2.09,10.31-6.36-.5-.53-35.49,2.94-35.83,3-2.69.46-3.15,3.62-3.17,3.65-.28,2.5.18,2.46,7.75,2a210.75,210.75,0,0,0,7.87,31.42c-3.58,14.84-7.28,30.19-7.77,53.94-16-31.75-22.35-53.8-23.55-81.37,2.25-1.36,5.28-.83,7.28-2.88,1.36-1.4,2-4.54.33-4.91-6-1.31-10.64,3-16.05,4.1m83.84,99c6.45-27.81,17.17-54.4,23.49-82.25a55.72,55.72,0,0,0,.37-23.12c18.8,29.38,16.64,75-23.86,105.37m-55.07,8.24c-40.68-18.49-48.14-62.31-34.49-96.05.51,33.39,9.86,59.41,34.49,96.05m23.84,3.91a51.27,51.27,0,0,1-14.59-1c-1.57-15.53-2.56-34.94,5.27-68.77a493.88,493.88,0,0,0,30,64,58.22,58.22,0,0,1-20.67,5.83"/><path class="cls-16" d="M388.65,408.19c-12.87,49.14-63.52,96-121,109.63-49.44,11.7-104.33-26.45-103.58-49.89.86-26.41,34-25,50.65,3,25.48,42.85,112.65,12.84,145.17-46.88Z"/><path class="cls-17" d="M317.58,123.38c-49.9-1.5-91.49,20.42-113.41,55.2-14.78,23.46-4.75,37.1,4.62,40,9.57,3,34.34-6.37,42.66-21.5,19.65,12.1,43.27,10.62,62.17,4.58l34.2,4.13"/><path class="cls-18" d="M309.25,431.06c18.45,1.64,48.75-1.78,79.4-22.87,55.29-38.08,49.89-155.73,32.51-204.88s-53.69-82.41-103.58-83.93-91.49,20.42-113.41,55.2c-14.78,23.46-4.75,37.1,4.62,40,9.57,3,34.34-6.37,42.66-21.5,19.65,12.1,43.27,10.62,62.17,4.58l34.2,4.13c-28.74-11.34-65-4.54-83.93,12.1s-6,28.74,8.33,30.24,42.32-11.34,64.26-6.81,28.65,12.57,52.09,33.74c0,0,12.85,51.42,0,71.15-22.28-12.87-62.58,1.7-74.56,29.13Z"/><path class="cls-19" d="M283.85,202.23a89.61,89.61,0,0,1,63.39.31c-14-12.62-50-28.71-73.17-1.21A78.22,78.22,0,0,0,283.85,202.23Z"/><path class="cls-20" d="M194.34,216.5c7.32,2.93,11.62,19.74,2.54,28.81-7.53,7.53-20,5-24.67-1.73C177,236.25,194.34,216.5,194.34,216.5Z"/><path class="cls-21" d="M347.82,201.79c13.1,13.24,61.19,16.26,73.34,3.52l-11.84-25.23c-19.55-40.24-49.13-56.45-89.74-57.67-47.08-1.43-92.41,16.81-114.48,51.8-6,9.57-11,25.32-4.59,34.42,28.6-45,29.22-60.25,133.13-33.23,13.38,3.48,20.42,15.18,14.18,26.39"/><path class="cls-22" d="M291.35,146.13c6.82-4.66,16.36-5.34,26.78,8.05a6,6,0,0,1-.89,8.23C318.72,158.61,307,144.59,291.35,146.13Z"/><path class="cls-23" d="M237.45,174.87c-4.56-4.71-12.53-9.39-21.94-8.47,6.82-4.66,15-7.78,25.38,5.62"/><path class="cls-24" d="M244.17,173.89c-5.42,4.07-3.77,9.08,2.27,9.83s6.51,1.15,12.09-3c6.06-4.54,6.87-9.58,0-10.34S247.19,171.62,244.17,173.89Z"/><path class="cls-25" d="M194.34,213.89c-7.55-3-26.45,9.82-24.19,21.93s15.87,12.1,24.94,3S201.66,216.81,194.34,213.89Z"/><path d="M229.11,173.81a6.8,6.8,0,1,1-6.79-6.78A6.79,6.79,0,0,1,229.11,173.81Z"/><path d="M307.75,154.91a6.81,6.81,0,1,1-6.8-6.79A6.8,6.8,0,0,1,307.75,154.91Z"/><path class="cls-26" d="M196.21,399.55c-18.65-15.51-37.24-49.73-39.44-64C175.26,350.47,184.37,372.41,196.21,399.55Z"/><path class="cls-27" d="M155,340.91c-18.46-14.2-39.3-1.52-34.78,20.42,3.73,18,34.18,51.47,56,56.68,18.9,4.54,15.08-15.84,12.1-22.67C183,383.25,164.85,348.46,155,340.91Z"/><path class="cls-28" d="M326.27,133.13c-7.4,0-50.32,13.65-69.38,24.2-3,1.67-6.29,1.72-9.73,2-22.32,1.6-37.21-3.73-47.06,11.88,1.47,14.07,11.7,27.61,22.15,29.35,5.95-7.45,11.46-17.86,25.27-28.59,3.19-2.48,7.53-4.06,11.28-2.53,13.44,5.47,50.57,16.65,50.57,16.65S347.82,152.75,326.27,133.13ZM287,154.54c3.77-7.21,14.87-18.08,27.69-1.6a4.63,4.63,0,0,1-.7,6.41c-12.16,10.12-21.9,5.6-26.45.24A4.55,4.55,0,0,1,287,154.54Zm-76.36,22.24c1.71-6.58,8.67-18.27,22-7.13a3.91,3.91,0,0,1,.61,5.36c-8,10.47-16.64,9.34-21.29,5.79A3.82,3.82,0,0,1,210.59,176.78Z"/><path d="M245,170.79c-5.41,4.07-3.77,9.08,2.27,9.83s6.51,1.15,12.09-3c6.06-4.54,6.87-9.57,0-10.34S248,168.53,245,170.79Z"/><path class="cls-29" d="M214.19,215.1c-40.55-1.66,48.84-79.52,58.05-78.64-12.25-4.65-41.58-3.54-71.31,44.16C200.1,208,200.93,215.1,214.19,215.1Z"/><path class="cls-30" d="M323.19,136.49c-7.4,0-50.32,13.65-69.38,24.21-3,1.67-6.29,1.71-9.73,2-22.32,1.6-37.21-3.72-47.06,11.88,1.47,14.07,11.7,27.62,22.15,29.35,6-7.44,11.46-17.85,25.27-28.58,3.19-2.48,7.53-4.06,11.28-2.54,13.44,5.47,50.57,16.65,50.57,16.65S344.74,156.12,323.19,136.49Z"/><path class="cls-31" d="M206.57,172.17c-1.32-1.32.84-3.81-.5-2.49-8.93,8.94-30.36,19.29-36.67,22.74-2.41,1.33-4.72,2.4-5.43,4.83a7.35,7.35,0,0,0,2.07,7.19c1.85,1.87,5.69,4.19,13.39,4.19,4.41,0,12.07-1.76,19.35-3.8"/><path class="cls-32" d="M306.77,239.21c-12,2.43-24.11,5.52-34.55,4.89-15.88-1-27.23-14.61-8.33-31.24,5.82-5.13,16.34-9.32,24.73-12.33C301.36,207.75,306.23,225.74,306.77,239.21Z"/><path class="cls-33" d="M388.57,271.06s11.76,50.85-1.09,70.57c6.35,8.84,29.57,34.53,1.17,66.56,55.29-38.08,49.89-155.73,32.51-204.88-9.76,5.32-24.65,5.32-73.34-1.52,19.71,10.83,12.24,41.25,26.69,56.5A113.12,113.12,0,0,0,388.57,271.06Z"/><path class="cls-34" d="M389,409.19c39.62-34.07,42.5-77.47,42.5-92.56-10.3,11.11-26,10.13-38.18,5.3L389,342S421.35,363.5,389,409.19Z"/><path class="cls-35" d="M277.22,138.09c25.18,10.28,104.08,31.13,70.6,63.7,0,0,48.73,24.89,73.34,3.52,1.74-8.68-20.89-67.65-77.57-99.2-28-15.56-92.54-20-118.89,17.2-20,28.23-54.73,82.19-15.91,91.27-12.58-19.76-11.58-23.73,27.23-67.28,5.11-5.74,12.91-10,22.51-11.5A34.79,34.79,0,0,1,277.22,138.09Z"/><path class="cls-36" d="M322.19,411.9s-4.53,26.45-29.49,26.45-14.37-30.24-17.39-49.89-15.11-45.36,3-57.46,40.08,23.44,43.86,37C327.48,386.19,326.73,397.53,322.19,411.9Z"/><path class="cls-37" d="M388.65,411c-31.28,20.16-63.54,24.83-82,23.18l5.55-64.08c31.56-43.37,60.83-38.31,81.71-29.07C412.28,349.11,419.62,382.23,388.65,411Z"/><path class="cls-38" d="M388.65,411c-31.28,20.16-63.54,24.83-82,23.18l5.55-64.08c20.91-28.74,40.82-36.21,57.94-35.29C384,346.1,401.13,400.68,388.65,411Z"/><path class="cls-39" d="M315.31,418.78s-4.54,26.46-29.5,26.46-14.36-30.25-17.38-49.9-15.11-45.36,3-57.45,40.07,23.44,43.86,37C320.6,393.07,319.85,404.42,315.31,418.78Z"/><path class="cls-40" d="M376.55,140.55c-13.59-1.1-3,9.07,1.5,12.86s37.05,33.27,67.3,24.19,39.32-34,33.26-35.53S404.53,142.82,376.55,140.55Z"/><path class="cls-41" d="M310.65,196.4c7-.2,11.38-.28,15.62.26,10.35,5.13,10.66,34.55,10.21,40.66,0,0-11.74-1-13.22-.91C323.43,226.4,323.64,203.89,310.65,196.4Z"/><path class="cls-42" d="M415.86,169.92h0l.13.1-.14-.11Z"/></g></svg>