<svg xmlns="http://www.w3.org/2000/svg" xmlns:xlink="http://www.w3.org/1999/xlink" viewBox="0 0 600 600"><defs><style>.cls-1{fill:url(#Dégradé_sans_nom_215);}.cls-2{fill:url(#Dégradé_sans_nom_185);}.cls-3{fill:url(#Dégradé_sans_nom_168);}.cls-4{fill:url(#Dégradé_sans_nom_51);}.cls-5{fill:url(#Dégradé_sans_nom_178);}.cls-6{fill:url(#Dégradé_sans_nom_212);}.cls-7{fill:url(#Dégradé_sans_nom_178-2);}.cls-8{fill:url(#Dégradé_sans_nom_15);}.cls-9{fill:#fff;}.cls-10{fill:url(#Dégradé_sans_nom_30);}.cls-11{fill:url(#Dégradé_sans_nom_178-3);}.cls-12{fill:url(#Dégradé_sans_nom_12);}.cls-13{fill:url(#Dégradé_sans_nom_133);}.cls-14{fill:url(#Dégradé_sans_nom_194);}.cls-15{fill:url(#Dégradé_sans_nom_165);}.cls-16{fill:url(#Dégradé_sans_nom_121);}.cls-17{fill:url(#Dégradé_sans_nom_184);}.cls-18{fill:url(#Dégradé_sans_nom_181);}.cls-19{fill:url(#Dégradé_sans_nom_220);}.cls-20{fill:url(#Dégradé_sans_nom_121-2);}.cls-21{opacity:0.5;fill:url(#Dégradé_sans_nom_30-2);}.cls-22{fill:url(#Dégradé_sans_nom_244);}.cls-23{fill:url(#Dégradé_sans_nom_181-2);}.cls-24{fill:url(#Dégradé_sans_nom_235);}.cls-25{fill:url(#Dégradé_sans_nom_237);}.cls-26{fill:url(#Dégradé_sans_nom_242);}.cls-27{fill:url(#Dégradé_sans_nom_133-2);}.cls-28{fill:url(#Dégradé_sans_nom_274);}.cls-29{fill:url(#Dégradé_sans_nom_133-3);}.cls-30{fill:url(#Dégradé_sans_nom_96);}.cls-31{fill:url(#Dégradé_sans_nom_287);}.cls-32{fill:url(#Dégradé_sans_nom_274-2);}.cls-33{fill:url(#Dégradé_sans_nom_274-3);}.cls-34{fill:url(#Dégradé_sans_nom_309);}</style><linearGradient id="Dégradé_sans_nom_215" x1="140.49" y1="188.65" x2="185.27" y2="188.65" gradientUnits="userSpaceOnUse"><stop offset="0" stop-color="#ffd200"/><stop offset="0.18" stop-color="#ffce00"/><stop offset="0.35" stop-color="#ffc400"/><stop offset="0.51" stop-color="#ffb100"/><stop offset="0.66" stop-color="#ff9800"/><stop offset="0.73" stop-color="#f80"/></linearGradient><radialGradient id="Dégradé_sans_nom_185" cx="250.49" cy="310.4" r="118.78" gradientUnits="userSpaceOnUse"><stop offset="0.16" stop-color="#3d56a3"/><stop offset="0.61" stop-color="#242c7d"/><stop offset="0.91" stop-color="#171569"/></radialGradient><radialGradient id="Dégradé_sans_nom_168" cx="216.66" cy="299.34" r="89.74" gradientUnits="userSpaceOnUse"><stop offset="0" stop-color="#3d56a3"/><stop offset="0.14" stop-color="#3c54a1" stop-opacity="0.97"/><stop offset="0.3" stop-color="#394f9c" stop-opacity="0.89"/><stop offset="0.47" stop-color="#334694" stop-opacity="0.75"/><stop offset="0.64" stop-color="#2c3989" stop-opacity="0.55"/><stop offset="0.82" stop-color="#22287a" stop-opacity="0.3"/><stop offset="1" stop-color="#171569" stop-opacity="0"/></radialGradient><linearGradient id="Dégradé_sans_nom_51" x1="140.87" y1="464.09" x2="365.42" y2="464.09" gradientUnits="userSpaceOnUse"><stop offset="0.12" stop-color="#f80"/><stop offset="0.41" stop-color="#fc8602"/><stop offset="0.6" stop-color="#f38007"/><stop offset="0.76" stop-color="#e47510"/><stop offset="0.91" stop-color="#cf671c"/><stop offset="1" stop-color="#be5b26"/></linearGradient><radialGradient id="Dégradé_sans_nom_178" cx="249.02" cy="171.22" r="63.28" gradientUnits="userSpaceOnUse"><stop offset="0" stop-color="#020202"/><stop offset="1" stop-color="#020202" stop-opacity="0"/></radialGradient><linearGradient id="Dégradé_sans_nom_212" x1="173.44" y1="275.36" x2="409.92" y2="275.36" gradientUnits="userSpaceOnUse"><stop offset="0" stop-color="#ffd200"/><stop offset="0.18" stop-color="#ffce00"/><stop offset="0.35" stop-color="#ffc400"/><stop offset="0.5" stop-color="#ffb100"/><stop offset="0.65" stop-color="#ff9800"/><stop offset="0.73" stop-color="#f80"/><stop offset="1" stop-color="#e97300"/></linearGradient><radialGradient id="Dégradé_sans_nom_178-2" cx="153.52" cy="367.62" r="26.44" xlink:href="#Dégradé_sans_nom_178"/><radialGradient id="Dégradé_sans_nom_15" cx="163.35" cy="232.22" r="15.05" gradientUnits="userSpaceOnUse"><stop offset="0" stop-color="#020202"/><stop offset="0.35" stop-color="#020202"/><stop offset="1" stop-color="#020202" stop-opacity="0"/></radialGradient><linearGradient id="Dégradé_sans_nom_30" x1="259.25" y1="363.74" x2="352.04" y2="199.45" gradientTransform="translate(10.37) scale(1.02 1)" gradientUnits="userSpaceOnUse"><stop offset="0" stop-color="#212155"/><stop offset="0.2" stop-color="#1f1f50" stop-opacity="0.94"/><stop offset="0.43" stop-color="#1a1a43" stop-opacity="0.78"/><stop offset="0.67" stop-color="#12122d" stop-opacity="0.52"/><stop offset="0.92" stop-color="#06060e" stop-opacity="0.14"/><stop offset="1" stop-color="#020202" stop-opacity="0"/></linearGradient><radialGradient id="Dégradé_sans_nom_178-3" cx="274" cy="383.44" r="43.8" xlink:href="#Dégradé_sans_nom_178"/><linearGradient id="Dégradé_sans_nom_12" x1="228.91" y1="184.21" x2="228.91" y2="170.19" gradientUnits="userSpaceOnUse"><stop offset="0" stop-color="#ffd200"/><stop offset="0.77" stop-color="#f27e30"/></linearGradient><linearGradient id="Dégradé_sans_nom_133" x1="360.47" y1="189.44" x2="360.47" y2="213.65" gradientUnits="userSpaceOnUse"><stop offset="0" stop-color="#ef7c31" stop-opacity="0"/><stop offset="0.11" stop-color="#ed7a31" stop-opacity="0.04"/><stop offset="0.25" stop-color="#e77630" stop-opacity="0.14"/><stop offset="0.42" stop-color="#de6f2e" stop-opacity="0.3"/><stop offset="0.61" stop-color="#d0652c" stop-opacity="0.53"/><stop offset="0.81" stop-color="#c05829" stop-opacity="0.82"/><stop offset="0.93" stop-color="#b55027"/></linearGradient><linearGradient id="Dégradé_sans_nom_194" x1="279.08" y1="317.78" x2="442.3" y2="261.32" gradientUnits="userSpaceOnUse"><stop offset="0.07" stop-color="#00a2e6"/><stop offset="0.18" stop-color="#0185e4"/><stop offset="0.25" stop-color="#016de3"/><stop offset="0.51" stop-color="#026adf"/><stop offset="1" stop-color="#161e7b"/></linearGradient><linearGradient id="Dégradé_sans_nom_165" x1="146.74" y1="229.38" x2="177.7" y2="229.38" gradientUnits="userSpaceOnUse"><stop offset="0.12" stop-color="#0082e6"/><stop offset="0.37" stop-color="#056bc9"/><stop offset="0.89" stop-color="#133180"/><stop offset="1" stop-color="#162470"/></linearGradient><linearGradient id="Dégradé_sans_nom_121" x1="96.39" y1="376.78" x2="167.54" y2="376.78" gradientUnits="userSpaceOnUse"><stop offset="0" stop-color="#ffd200"/><stop offset="0.88" stop-color="#f80"/></linearGradient><linearGradient id="Dégradé_sans_nom_184" x1="387.16" y1="404.57" x2="387.16" y2="313.22" gradientUnits="userSpaceOnUse"><stop offset="0" stop-color="#212170"/><stop offset="0.21" stop-color="#20206d" stop-opacity="0.97"/><stop offset="0.4" stop-color="#1d1d62" stop-opacity="0.87"/><stop offset="0.57" stop-color="#181850" stop-opacity="0.71"/><stop offset="0.74" stop-color="#111137" stop-opacity="0.49"/><stop offset="0.91" stop-color="#080818" stop-opacity="0.2"/><stop offset="1" stop-color="#020202" stop-opacity="0"/></linearGradient><linearGradient id="Dégradé_sans_nom_181" x1="364.69" y1="365.28" x2="408.05" y2="365.28" gradientUnits="userSpaceOnUse"><stop offset="0" stop-color="#a0130b"/><stop offset="0.62" stop-color="#ed3230"/></linearGradient><linearGradient id="Dégradé_sans_nom_220" x1="283.44" y1="384.57" x2="386.67" y2="384.57" gradientUnits="userSpaceOnUse"><stop offset="0.12" stop-color="#0082e6"/><stop offset="0.51" stop-color="#0965ca"/><stop offset="1" stop-color="#163ba0"/></linearGradient><linearGradient id="Dégradé_sans_nom_121-2" x1="238.46" y1="390.33" x2="295.77" y2="390.33" xlink:href="#Dégradé_sans_nom_121"/><linearGradient id="Dégradé_sans_nom_30-2" x1="358.75" y1="261.71" x2="406.12" y2="230.94" gradientTransform="matrix(1, 0, 0, 1, 0, 0)" xlink:href="#Dégradé_sans_nom_30"/><linearGradient id="Dégradé_sans_nom_244" x1="376.69" y1="306.81" x2="461.28" y2="230.64" gradientUnits="userSpaceOnUse"><stop offset="0" stop-color="#aa0004"/><stop offset="0.22" stop-color="#a30d09"/><stop offset="0.44" stop-color="#a0130b"/><stop offset="0.46" stop-color="#9d130b"/><stop offset="0.64" stop-color="#7f130b"/><stop offset="0.8" stop-color="#6d130b"/><stop offset="0.91" stop-color="#67130b"/></linearGradient><linearGradient id="Dégradé_sans_nom_181-2" x1="389.47" y1="309.02" x2="512.62" y2="229.04" xlink:href="#Dégradé_sans_nom_181"/><linearGradient id="Dégradé_sans_nom_235" x1="487.22" y1="317.67" x2="495.04" y2="312.59" gradientUnits="userSpaceOnUse"><stop offset="0" stop-color="#a0130b"/><stop offset="1" stop-color="#ed3230"/></linearGradient><linearGradient id="Dégradé_sans_nom_237" x1="522.62" y1="330.64" x2="542.88" y2="330.25" gradientUnits="userSpaceOnUse"><stop offset="0.46" stop-color="#ed3230"/><stop offset="1" stop-color="#a0130b"/></linearGradient><linearGradient id="Dégradé_sans_nom_242" x1="571.32" y1="297.29" x2="577.83" y2="293.06" gradientTransform="matrix(-0.53, 0.85, 0.85, 0.53, 536.78, -297.64)" gradientUnits="userSpaceOnUse"><stop offset="0.18" stop-color="#ed3230" stop-opacity="0"/><stop offset="1" stop-color="#a0130b"/></linearGradient><linearGradient id="Dégradé_sans_nom_133-2" x1="199.09" y1="140.47" x2="387.25" y2="140.47" xlink:href="#Dégradé_sans_nom_133"/><linearGradient id="Dégradé_sans_nom_274" x1="199.09" y1="140.41" x2="387.25" y2="140.41" gradientUnits="userSpaceOnUse"><stop offset="0" stop-color="#552900"/><stop offset="0.03" stop-color="#502700"/><stop offset="0.31" stop-color="#2d1600"/><stop offset="0.57" stop-color="#140a00"/><stop offset="0.81" stop-color="#050300"/><stop offset="1"/></linearGradient><linearGradient id="Dégradé_sans_nom_133-3" x1="372.43" y1="182.68" x2="363.6" y2="138.28" xlink:href="#Dégradé_sans_nom_133"/><linearGradient id="Dégradé_sans_nom_96" x1="387.59" y1="174.68" x2="413.48" y2="121.58" gradientUnits="userSpaceOnUse"><stop offset="0.17" stop-color="#f57c00"/><stop offset="1" stop-color="#ffd200"/></linearGradient><linearGradient id="Dégradé_sans_nom_287" x1="328.86" y1="101.27" x2="343.52" y2="94.89" gradientTransform="translate(365.22 -203.87) rotate(94.6)" gradientUnits="userSpaceOnUse"><stop offset="0"/><stop offset="1" stop-color="#552900" stop-opacity="0"/></linearGradient><linearGradient id="Dégradé_sans_nom_274-2" x1="344.48" y1="153.24" x2="344.48" y2="138.47" xlink:href="#Dégradé_sans_nom_274"/><linearGradient id="Dégradé_sans_nom_274-3" x1="339.22" y1="152.01" x2="339.22" y2="136.29" xlink:href="#Dégradé_sans_nom_274"/><linearGradient id="Dégradé_sans_nom_309" x1="204.65" y1="139.47" x2="241.58" y2="139.47" gradientUnits="userSpaceOnUse"><stop offset="0" stop-color="#6b3f14"/><stop offset="0.05" stop-color="#653b13"/><stop offset="1"/></linearGradient></defs><g id="Calque_2" data-name="Calque 2"><path class="cls-1" d="M183.84,172.31c1.15-2.87,2.12-4.51.79-3.19-8.93,8.95-32.15,19.85-38.45,23.3-2.42,1.33-4.72,2.4-5.43,4.83a7.32,7.32,0,0,0,2.06,7.19c1.85,1.87,5.69,4.19,13.4,4.19,4.41,0,12.06-1.76,19.34-3.8"/><path class="cls-2" d="M245.17,427.73A120.21,120.21,0,0,1,130.28,307.64c0-39.32,19.7-74.94,48.9-96.88,20.71,10.74,36.18-8.26,49-17.68,36.83,9.42,96.15,3.95,136.35,76.54,6.09,11,6.13,24.74,6.13,38a120.28,120.28,0,0,1-5,34.35c-29.53-10.93-64.66,2.78-74.94,29.35C271.06,406.47,245.17,427.73,245.17,427.73Z"/><path class="cls-3" d="M303.05,299.32a93,93,0,0,0-91.47-93c-9.45,6.79-20,10.59-32.4,4.4-.5.18-1.31,1.3-1.8,1.48A120.12,120.12,0,0,0,145.6,366.32a93,93,0,0,0,157.45-67Z"/><path class="cls-4" d="M365.42,408.19c-12.86,49.14-63.51,96-121,109.63-49.44,11.7-104.34-26.45-103.59-49.89.86-26.41,34-25,50.65,3C217,513.8,304.18,483.79,336.69,424.07Z"/><path class="cls-5" d="M294.35,123.38c-49.89-1.5-91.48,20.42-113.4,55.2-14.79,23.46-4.75,37.1,4.61,40,9.58,3,34.34-6.37,42.67-21.5,19.65,12.1,43.27,10.62,62.17,4.58l34.2,4.13"/><path class="cls-6" d="M286,431.06c18.44,1.64,48.74-1.78,79.39-22.87,55.3-38.08,49.9-155.73,32.52-204.88s-53.69-82.41-103.59-83.93S202.87,139.8,181,174.58c-14.79,23.46-4.75,37.1,4.61,40,9.58,3,34.34-6.37,42.67-21.5,19.65,12.1,43.27,10.62,62.17,4.58l34.2,4.13c-28.75-11.34-65-4.54-83.93,12.1s-6,28.74,8.32,30.24,42.33-11.34,64.27-6.81,28.65,12.57,52.09,33.74c0,0,12.84,51.42,0,71.15-22.29-12.87-62.58,1.7-74.56,29.13Z"/><path class="cls-7" d="M173,399.55a31.71,31.71,0,0,0-2-7.06c-5.29-12.1-23.44-46.88-33.26-54.44a32.84,32.84,0,0,0-3.49-2.35C132,345.29,154.45,386.68,173,399.55Z"/><path class="cls-8" d="M171.12,216.5c7.32,2.93,9.83,15.89.75,25-7.53,7.53-18.19,8.81-22.88,2.12C153.79,236.25,171.12,216.5,171.12,216.5Z"/><path class="cls-9" d="M217.9,222.72c-60.35,5-99.54,95.91-46.17,143.5,54.11,48.22,120.92-14.09,118.61-71.91-1.79-44.83-38.89-73.22-72.44-71.59m-55.42,41.77c18.35-28.27,53.48-51.26,92-23-.26,0-24.71,1.11-6.95,27.41,9.61,14.2,10.23,25.59,2.63,48.77-2.74,11.43-3.57,14.88-6,26.65-11.73-28-21.3-51.9-28.85-82.4,6.63-1,14.16-2.09,10.31-6.36-.5-.53-35.5,2.94-35.83,3-2.7.46-3.16,3.62-3.18,3.65-.27,2.5.19,2.46,7.76,2,2,10.77,2.92,15.68,7.87,31.42-3.59,14.84-7.28,30.19-7.78,53.94-16-31.75-22.34-53.8-23.54-81.37,2.25-1.36,5.28-.83,7.27-2.88,1.37-1.4,2-4.54.34-4.91-6-1.31-10.64,3-16.05,4.1m83.84,99c6.44-27.81,17.17-54.4,23.49-82.25a55.72,55.72,0,0,0,.37-23.12c18.79,29.38,16.63,75-23.86,105.37m-55.07,8.24c-40.68-18.49-48.14-62.31-34.5-96.05.52,33.39,9.86,59.41,34.5,96.05m23.84,3.91a51.27,51.27,0,0,1-14.59-1c-1.57-15.53-2.57-34.94,5.26-68.77a493.88,493.88,0,0,0,30,64,58.15,58.15,0,0,1-20.66,5.83"/><path class="cls-10" d="M361.28,411.19c54.82-36.3,49.47-152,32.23-198.9-24,12.29-59.07,6.08-72.7-1.44-19.72-7.49-43-6.68-61.72-.23a67.71,67.71,0,0,0-21.49,11.75c-18.74,15.86-7.49,28.87,8.25,29.78,19.4,1.13,44.7-10.19,63.71-6.48,18.17,3.54,35.92,20.28,47.25,34.12a6.25,6.25,0,0,1,1.33,2.95c1.33,8.13,6.58,44.25-2.49,61.32C376.75,347.22,375.65,403,361.28,411.19Z"/><path class="cls-11" d="M299,411.9s-4.54,26.45-29.5,26.45-14.36-30.24-17.38-49.89S237,343.1,255.11,331s40.07,23.44,43.86,37C304.26,386.19,303.51,397.53,299,411.9Z"/><path class="cls-12" d="M221,173.89c-5.42,4.07-3.77,9.08,2.27,9.83s6.51,1.15,12.09-3c6.06-4.54,6.87-9.58,0-10.34S224,171.62,221,173.89Z"/><path class="cls-13" d="M392.33,189.44s4.27,10,5.42,13.41c0,0-45.17,25.74-74.56-2.24C347.52,203.68,385.12,196,392.33,189.44Z"/><path class="cls-14" d="M365.42,411c55.3-38.08,54-154.35,32.33-208.11-24.18,12.89-51.06,5.12-73.15-2.09-19.89-7.85-43.4-7-62.25-.23a67.1,67.1,0,0,0-21.68,12.33c-18.9,16.63-7.56,30.28,8.32,31.24,19.57,1.18,45.09-10.69,64.27-6.81C331.58,241,353.52,258.58,365,273.1a6.61,6.61,0,0,1,1.34,3.09c1.34,8.53,6.64,46.42-2.51,64.34C385.06,343.84,379.91,402.36,365.42,411Z"/><path class="cls-15" d="M171.12,213.89c-7.56-3-26.46,9.82-24.19,21.93s15.86,12.1,24.94,3S178.44,216.81,171.12,213.89Z"/><path d="M205.89,173.81A6.8,6.8,0,1,1,199.1,167,6.79,6.79,0,0,1,205.89,173.81Z"/><path d="M284.53,154.91a6.81,6.81,0,1,1-6.81-6.79A6.81,6.81,0,0,1,284.53,154.91Z"/><path d="M221.77,170.79c-5.42,4.07-3.77,9.08,2.27,9.83s6.51,1.15,12.09-3c6.06-4.54,6.87-9.57,0-10.34S224.79,168.53,221.77,170.79Z"/><path class="cls-16" d="M131.8,340.91c-18.46-14.2-39.3-1.52-34.78,20.42,3.73,18,34.18,51.47,56,56.68,18.9,4.54,15.08-15.84,12.09-22.67C159.78,383.25,141.62,348.46,131.8,340.91Z"/><path class="cls-17" d="M366.36,404.57c38.91-29,41.22-79.58,42.62-91.35-10.3,11.11-28.16,11.22-40.31,6.39l-3.33,15.78S398.71,358.89,366.36,404.57Z"/><path class="cls-18" d="M365.42,411c38.91-29,42.63-76.27,42.63-91.35-10.31,11.1-28.16,8.92-40.31,4.09l-3.05,14.87S397.78,365.27,365.42,411Z"/><path class="cls-19" d="M365.42,411c-31.27,20.16-63.53,24.83-82,23.18L289,370.06c31.57-43.37,60.83-38.31,81.72-29.07C389.06,349.11,396.67,386.56,365.42,411Z"/><path class="cls-20" d="M292.08,418.78s-4.53,26.46-29.49,26.46-14.36-30.25-17.38-49.9-15.12-45.36,3-57.45,40.07,23.44,43.85,37C297.37,393.07,296.62,404.42,292.08,418.78Z"/><path class="cls-21" d="M407.81,319.85c2.46-38.54-8.13-81.11-21.44-91.26s-39.68-9.46-68.73-30.19c24.41,13.12,59.61,8.85,68.73,7.1S429.66,276.71,407.81,319.85Z"/><path class="cls-22" d="M397.19,222.69c21.58,38.27,8.21,116,8.21,116,17.31,17.58,26.34-21,74.64,36.63,36.09-62.1-5.72-137.16-29.64-155.41-47.51-36.27-83.49-6.61-132.76-21.51,21.56,13.11,47.76,13.54,63.31,12.18C388.65,209.91,393.39,216,397.19,222.69Z"/><path class="cls-23" d="M408.19,222.69c49,40.05,49,169.63,49,169.63,72.91,21.13,104.66-67.44,106.45-84.76-47.52-16.49-89.29-69.4-113.21-87.65-47.51-36.27-83.49-6.61-132.76-21.51,21.56,13.11,47.84,14.07,63.31,16.18C393.51,216.29,402.2,217.79,408.19,222.69Z"/><path class="cls-24" d="M475.6,283.24c7.45,5.44,15.91,62.37,37.07,59.89"/><path class="cls-25" d="M524,305.24c22,15.4,12.56,41.81,7.36,50.61"/><path class="cls-26" d="M476.52,323.41c-3.62,17.25,7.64,37.46,16.45,43.49"/><path class="cls-27" d="M387.25,183.05c-5.88-68.16-70.38-68.89-76.16-72S276.75,94.22,249,98.82c-41.8,6.94-47.34,43.7-49.93,57.63,12.83-12.26,50.07-33.42,84.49-33.22,23.41.68,37.65,19.75,63.13,24.17C359.79,148.07,383.06,174.86,387.25,183.05Z"/><path class="cls-28" d="M387.25,183.05c-5.88-68.16-70.38-72.61-76.16-75.73S279.71,94.22,252,99.1c-55.9,9.84-50.34,39.69-52.93,53.62,12.83-12.25,50.07-33.41,84.49-33.21,23.41.68,37.65,19.75,63.13,24.17C359.79,144.34,383.06,174.86,387.25,183.05Z"/><path class="cls-29" d="M380.17,167.19c4.77,8.1,11.26,20.33,11.26,20.33-.22,6-5.8,7.45-16.88-1.73-12-10-26.55-29.86-27.84-42.11C345.87,135.65,371.84,155,380.17,167.19Z"/><path class="cls-30" d="M353.33,140.55c-13.6-1.1-3,9.07,1.5,12.86s37.05,33.27,67.3,24.19,39.32-34,33.26-35.53S381.3,142.82,353.33,140.55Z"/><path class="cls-31" d="M281.79,119.31c-22.58-21.1-52.45-4.69-58,3-6.23,8.67-13.16,20.57-17.94,24.6"/><path class="cls-32" d="M341.36,140.92c3.46,5.21,6.4,5.06-2.14,12.32,7.87-2.47,13.2-5.3,9.1-14.77"/><path class="cls-33" d="M334.93,138.74c3.46,5.22,9,3,1.18,13.27,5.55-3.89,9.88-6.24,5.79-15.72"/><path class="cls-34" d="M241.58,128.38c-19.67-31.41-49-1.21-31.62,8.36,5.25,2.9,8.71,3.3,3.4,9.88-7.39,9.17-2.58,19.35,12.82,17.69-16.2-8.68-2.18-13.89,2.3-16.19,7.7-3.94,5.12-9.9-.21-13.87C224.16,131.52,234.16,132.76,241.58,128.38Z"/></g></svg>