<svg xmlns="http://www.w3.org/2000/svg" xmlns:xlink="http://www.w3.org/1999/xlink" viewBox="0 0 600 600"><defs><style>.cls-1{fill:url(#Dégradé_sans_nom_51);}.cls-2{fill:url(#Dégradé_sans_nom_178);}.cls-3{fill:url(#Dégradé_sans_nom_6);}.cls-4{fill:url(#Dégradé_sans_nom_322);}.cls-5{fill:url(#Dégradé_sans_nom_178-2);}.cls-6{fill:url(#Dégradé_sans_nom_15);}.cls-7{fill:url(#Dégradé_sans_nom_157);}.cls-8{fill:url(#Dégradé_sans_nom_168);}.cls-9{fill:#fff;}.cls-10{fill:url(#Dégradé_sans_nom_30);}.cls-11{fill:url(#Dégradé_sans_nom_178-3);}.cls-12{fill:url(#Dégradé_sans_nom_320);}.cls-13{fill:url(#Dégradé_sans_nom_121);}.cls-14{fill:url(#Dégradé_sans_nom_12);}.cls-15{fill:url(#Dégradé_sans_nom_12-2);}.cls-16{fill:url(#Dégradé_sans_nom_320-2);}.cls-17{fill:url(#Dégradé_sans_nom_6-2);}.cls-18{fill:url(#Dégradé_sans_nom_320-3);}.cls-19{fill:url(#Dégradé_sans_nom_121-2);}.cls-20{fill:url(#Dégradé_sans_nom_332);}.cls-21{fill:url(#Dégradé_sans_nom_324);}.cls-22{fill:url(#Dégradé_sans_nom_6-3);}.cls-23{fill:url(#Dégradé_sans_nom_336);}.cls-24{fill:#ffd200;}</style><linearGradient id="Dégradé_sans_nom_51" x1="164.09" y1="464.09" x2="388.65" y2="464.09" gradientUnits="userSpaceOnUse"><stop offset="0.12" stop-color="#f80"/><stop offset="0.41" stop-color="#fc8602"/><stop offset="0.6" stop-color="#f38007"/><stop offset="0.76" stop-color="#e47510"/><stop offset="0.91" stop-color="#cf671c"/><stop offset="1" stop-color="#be5b26"/></linearGradient><radialGradient id="Dégradé_sans_nom_178" cx="272.24" cy="171.22" r="63.28" gradientUnits="userSpaceOnUse"><stop offset="0" stop-color="#020202"/><stop offset="1" stop-color="#020202" stop-opacity="0"/></radialGradient><linearGradient id="Dégradé_sans_nom_6" x1="196.66" y1="275.36" x2="433.15" y2="275.36" gradientUnits="userSpaceOnUse"><stop offset="0" stop-color="#ffd200"/><stop offset="0.17" stop-color="#ffce00"/><stop offset="0.33" stop-color="#ffc400"/><stop offset="0.47" stop-color="#ffb100"/><stop offset="0.61" stop-color="#ff9800"/><stop offset="0.69" stop-color="#f80"/><stop offset="0.93" stop-color="#e97300"/></linearGradient><linearGradient id="Dégradé_sans_nom_322" x1="163.71" y1="188.97" x2="206.57" y2="188.97" gradientUnits="userSpaceOnUse"><stop offset="0" stop-color="#ffd200"/><stop offset="0.88" stop-color="#f80"/></linearGradient><radialGradient id="Dégradé_sans_nom_178-2" cx="176.75" cy="367.62" r="26.44" xlink:href="#Dégradé_sans_nom_178"/><radialGradient id="Dégradé_sans_nom_15" cx="186.57" cy="232.22" r="15.05" gradientUnits="userSpaceOnUse"><stop offset="0" stop-color="#020202"/><stop offset="0.35" stop-color="#020202"/><stop offset="1" stop-color="#020202" stop-opacity="0"/></radialGradient><radialGradient id="Dégradé_sans_nom_157" cx="273.72" cy="310.4" r="118.78" gradientUnits="userSpaceOnUse"><stop offset="0.16" stop-color="#3d56a3"/><stop offset="0.61" stop-color="#242c7d"/><stop offset="0.91" stop-color="#171569"/></radialGradient><radialGradient id="Dégradé_sans_nom_168" cx="239.89" cy="299.34" r="89.74" gradientUnits="userSpaceOnUse"><stop offset="0" stop-color="#3d56a3"/><stop offset="0.14" stop-color="#3c54a1" stop-opacity="0.97"/><stop offset="0.3" stop-color="#394f9c" stop-opacity="0.89"/><stop offset="0.47" stop-color="#334694" stop-opacity="0.75"/><stop offset="0.64" stop-color="#2c3989" stop-opacity="0.55"/><stop offset="0.82" stop-color="#22287a" stop-opacity="0.3"/><stop offset="1" stop-color="#171569" stop-opacity="0"/></radialGradient><linearGradient id="Dégradé_sans_nom_30" x1="266.11" y1="363.74" x2="358.9" y2="199.45" gradientTransform="translate(26.58) scale(1.02 1)" gradientUnits="userSpaceOnUse"><stop offset="0" stop-color="#212155"/><stop offset="0.2" stop-color="#1f1f50" stop-opacity="0.94"/><stop offset="0.43" stop-color="#1a1a43" stop-opacity="0.78"/><stop offset="0.67" stop-color="#12122d" stop-opacity="0.52"/><stop offset="0.92" stop-color="#06060e" stop-opacity="0.14"/><stop offset="1" stop-color="#020202" stop-opacity="0"/></linearGradient><radialGradient id="Dégradé_sans_nom_178-3" cx="297.22" cy="383.44" r="43.8" xlink:href="#Dégradé_sans_nom_178"/><linearGradient id="Dégradé_sans_nom_320" x1="306.67" y1="384.57" x2="409.79" y2="384.57" gradientUnits="userSpaceOnUse"><stop offset="0" stop-color="#e72b26"/><stop offset="0.06" stop-color="#dd231f"/><stop offset="0.22" stop-color="#c91411"/><stop offset="0.4" stop-color="#bb0807"/><stop offset="0.61" stop-color="#b30202"/><stop offset="0.98" stop-color="#b00000"/></linearGradient><linearGradient id="Dégradé_sans_nom_121" x1="261.68" y1="390.33" x2="319" y2="390.33" xlink:href="#Dégradé_sans_nom_322"/><linearGradient id="Dégradé_sans_nom_12" x1="276.79" y1="252.67" x2="350.95" y2="124.22" gradientUnits="userSpaceOnUse"><stop offset="0" stop-color="#ffd200"/><stop offset="0.77" stop-color="#f27e30"/></linearGradient><linearGradient id="Dégradé_sans_nom_12-2" x1="252.14" y1="184.21" x2="252.14" y2="170.19" xlink:href="#Dégradé_sans_nom_12"/><linearGradient id="Dégradé_sans_nom_320-2" x1="254.03" y1="303.06" x2="433.15" y2="303.06" xlink:href="#Dégradé_sans_nom_320"/><linearGradient id="Dégradé_sans_nom_6-2" x1="169.97" y1="229.38" x2="200.93" y2="229.38" xlink:href="#Dégradé_sans_nom_6"/><linearGradient id="Dégradé_sans_nom_320-3" x1="196.88" y1="166.28" x2="421.16" y2="166.28" xlink:href="#Dégradé_sans_nom_320"/><linearGradient id="Dégradé_sans_nom_121-2" x1="119.61" y1="376.78" x2="190.76" y2="376.78" xlink:href="#Dégradé_sans_nom_322"/><radialGradient id="Dégradé_sans_nom_332" cx="351.18" cy="151.77" r="15.09" gradientTransform="translate(-10.13 -84.25) scale(1.1 1.55)" gradientUnits="userSpaceOnUse"><stop offset="0.05" stop-color="#f80"/><stop offset="1" stop-color="#ffd200"/></radialGradient><linearGradient id="Dégradé_sans_nom_324" x1="387.85" y1="150.46" x2="451.41" y2="160.27" gradientUnits="userSpaceOnUse"><stop offset="0.12" stop-color="#f80"/><stop offset="1" stop-color="#ffd200"/></linearGradient><linearGradient id="Dégradé_sans_nom_6-3" x1="254.2" y1="231.91" x2="305.51" y2="217.19" xlink:href="#Dégradé_sans_nom_6"/><linearGradient id="Dégradé_sans_nom_336" x1="323.65" y1="237.07" x2="323.65" y2="194.85" gradientUnits="userSpaceOnUse"><stop offset="0.14" stop-color="#ffd200"/><stop offset="0.98" stop-color="#e6ff55"/></linearGradient></defs><g id="Calque_2" data-name="Calque 2"><path class="cls-1" d="M388.65,408.19c-12.87,49.14-63.52,96-121,109.63-49.44,11.7-104.33-26.45-103.58-49.89.86-26.41,34-25,50.65,3,25.48,42.85,112.65,12.84,145.17-46.88Z"/><path class="cls-2" d="M317.58,123.38c-49.9-1.5-91.49,20.42-113.41,55.2-14.78,23.46-4.75,37.1,4.62,40,9.57,3,34.34-6.37,42.66-21.5,19.65,12.1,43.27,10.62,62.17,4.58l34.2,4.13"/><path class="cls-3" d="M309.25,431.06c18.45,1.64,48.75-1.78,79.4-22.87,55.29-38.08,49.89-155.73,32.51-204.88s-53.69-82.41-103.58-83.93-91.49,20.42-113.41,55.2c-14.78,23.46-4.75,37.1,4.62,40,9.57,3,34.34-6.37,42.66-21.5,19.65,12.1,43.27,10.62,62.17,4.58l34.2,4.13c-28.74-11.34-65-4.54-83.93,12.1s-6,28.74,8.33,30.24,42.32-11.34,64.26-6.81,28.65,12.57,52.09,33.74c0,0,12.85,51.42,0,71.15-22.28-12.87-62.58,1.7-74.56,29.13Z"/><path class="cls-4" d="M206.57,172.17c-1.32-1.32.84-3.81-.5-2.49-8.93,8.94-30.36,19.29-36.67,22.74-2.41,1.33-4.72,2.4-5.43,4.83a7.35,7.35,0,0,0,2.07,7.19c1.85,1.87,5.69,4.19,13.39,4.19,4.41,0,12.07-1.76,19.35-3.8"/><path class="cls-5" d="M196.21,399.55a32.31,32.31,0,0,0-2-7.06c-5.29-12.1-23.44-46.88-33.27-54.44a32.74,32.74,0,0,0-3.48-2.35C155.19,345.29,177.67,386.68,196.21,399.55Z"/><path class="cls-6" d="M194.34,216.5c7.32,2.93,9.83,15.89.75,25-7.53,7.53-18.18,8.81-22.88,2.12C177,236.25,194.34,216.5,194.34,216.5Z"/><path class="cls-7" d="M268.39,427.73A120.21,120.21,0,0,1,153.5,307.64c0-39.32,19.7-74.94,48.9-96.88,20.72,10.74,36.19-8.26,49-17.68,36.83,9.42,96.15,3.95,136.35,76.54,6.1,11,6.13,24.74,6.13,38A120.63,120.63,0,0,1,389,342c-29.54-10.93-64.67,2.78-74.95,29.35C294.28,406.47,268.39,427.73,268.39,427.73Z"/><path class="cls-8" d="M326.27,299.32a93,93,0,0,0-91.47-93c-9.44,6.79-20,10.59-32.4,4.4-.49.18-1.3,1.3-1.8,1.48a120.12,120.12,0,0,0-31.78,154.08,93,93,0,0,0,157.45-67Z"/><path class="cls-9" d="M241.12,222.72c-60.35,5-99.54,95.91-46.17,143.5,54.11,48.22,120.92-14.09,118.62-71.91-1.8-44.83-38.9-73.22-72.45-71.59M185.7,264.49c18.36-28.27,53.48-51.26,92-23-.26,0-24.71,1.11-6.94,27.41,9.6,14.2,10.23,25.59,2.62,48.77-2.73,11.43-3.56,14.88-6,26.65-11.73-28-21.29-51.9-28.85-82.4,6.63-1,14.17-2.09,10.31-6.36-.5-.53-35.49,2.94-35.83,3-2.69.46-3.15,3.62-3.17,3.65-.28,2.5.18,2.46,7.75,2a210.75,210.75,0,0,0,7.87,31.42c-3.58,14.84-7.28,30.19-7.77,53.94-16-31.75-22.35-53.8-23.55-81.37,2.25-1.36,5.28-.83,7.28-2.88,1.36-1.4,2-4.54.33-4.91-6-1.31-10.64,3-16.05,4.1m83.84,99c6.45-27.81,17.17-54.4,23.49-82.25a55.72,55.72,0,0,0,.37-23.12c18.8,29.38,16.64,75-23.86,105.37m-55.07,8.24c-40.68-18.49-48.14-62.31-34.49-96.05.51,33.39,9.86,59.41,34.49,96.05m23.84,3.91a51.3,51.3,0,0,1-14.59-1c-1.57-15.53-2.56-34.94,5.27-68.77a493.88,493.88,0,0,0,30,64,58.22,58.22,0,0,1-20.67,5.83"/><path class="cls-10" d="M384.5,411.19c54.82-36.3,49.47-152,32.24-198.9-24,12.29-59.08,6.08-72.71-1.44-19.72-7.49-43-6.68-61.71-.23a67.65,67.65,0,0,0-21.5,11.75c-18.73,15.86-7.49,28.87,8.26,29.78,19.4,1.13,44.7-10.19,63.71-6.48C351,249.21,368.7,266,380,279.79a6.23,6.23,0,0,1,1.32,2.95c1.34,8.13,6.59,44.25-2.49,61.32C400,347.22,398.87,403,384.5,411.19Z"/><path class="cls-11" d="M322.19,411.9s-4.53,26.45-29.49,26.45-14.37-30.24-17.39-49.89-15.11-45.36,3-57.46,40.08,23.44,43.86,37C327.48,386.19,326.73,397.53,322.19,411.9Z"/><path class="cls-12" d="M388.65,411c-31.28,20.16-63.54,24.83-82,23.18l5.55-64.08c31.56-43.37,60.83-38.31,81.71-29.07C412.28,349.11,419.62,382.23,388.65,411Z"/><path class="cls-13" d="M315.31,418.78s-4.54,26.46-29.5,26.46-14.36-30.25-17.38-49.9-15.11-45.36,3-57.45,40.07,23.44,43.86,37C320.6,393.07,319.85,404.42,315.31,418.78Z"/><path class="cls-14" d="M421.16,205.31c-12.15,12.74-61.94,15.12-75,1.88,5.74-9.4,2.27-24.57,1-29.86-119.2-18.68-129.19,22.44-146.62,31.3-6.41-9.1-1.43-24.85,4.59-34.42,22.07-35,67.4-53.23,114.48-51.8,40.61,1.22,70.19,17.43,89.74,57.67Z"/><path class="cls-15" d="M244.17,173.89c-5.42,4.07-3.77,9.08,2.27,9.83s6.51,1.15,12.09-3c6.06-4.54,6.87-9.58,0-10.34S247.19,171.62,244.17,173.89Z"/><path class="cls-16" d="M388.65,411c55.29-38.08,49.89-159.53,32.51-208.68-24.19,12.89-59.59,6.38-73.34-1.52-19.89-7.85-43.39-7-62.25-.23a67.1,67.1,0,0,0-21.68,12.33c-18.9,16.63-7.55,30.28,8.33,31.24,19.57,1.18,45.08-10.69,64.26-6.81,18.33,3.72,40.26,21.29,51.7,35.81a6.7,6.7,0,0,1,1.33,3.09c1.35,8.53,6.64,46.42-2.51,64.34C408.28,343.84,403.14,402.36,388.65,411Z"/><path class="cls-17" d="M194.34,213.89c-7.55-3-26.45,9.82-24.19,21.93s15.87,12.1,24.94,3S201.66,216.81,194.34,213.89Z"/><path class="cls-18" d="M421.16,202.28C409,215,362.11,217.79,349,204.55c5.75-9.39,5.22-25.65,4-31-119.2-18.68-136.62,23-154.05,31.88-5.06-8.74.16-24.73,6.18-34.3,22.07-35,67.4-53.23,114.48-51.8,40.61,1.23,70.19,17.44,89.74,57.67Z"/><path d="M229.11,173.81a6.8,6.8,0,1,1-6.79-6.78A6.79,6.79,0,0,1,229.11,173.81Z"/><path d="M307.75,154.91a6.81,6.81,0,1,1-6.8-6.79A6.8,6.8,0,0,1,307.75,154.91Z"/><path d="M245,170.79c-5.41,4.07-3.77,9.08,2.27,9.83s6.51,1.15,12.09-3c6.06-4.54,6.87-9.57,0-10.34S248,168.53,245,170.79Z"/><path class="cls-19" d="M155,340.91c-18.46-14.2-39.3-1.52-34.78,20.42,3.73,18,34.18,51.47,56,56.68,18.9,4.54,15.08-15.84,12.1-22.67C183,383.25,164.85,348.46,155,340.91Z"/><ellipse class="cls-20" cx="375.74" cy="150.28" rx="8.69" ry="17.02" transform="translate(3.79 309.71) rotate(-45)"/><path class="cls-21" d="M376.55,140.55c-13.59-1.1-3,9.07,1.5,12.86s37.05,33.27,67.3,24.19,39.32-34,33.26-35.53S404.53,142.82,376.55,140.55Z"/><path class="cls-22" d="M306.77,239.21c-12,2.43-24.11,5.52-34.55,4.89-15.88-1-27.23-14.61-8.33-31.24a67.1,67.1,0,0,1,21.68-12.33C301.71,206.21,312.13,223,306.77,239.21Z"/><path class="cls-23" d="M313.05,195.24a41.63,41.63,0,0,1,10.69-.08c3.82,2.88,4.79,4.5,7.32,8.47q-1.8-1.23-3.66-2.25a34.86,34.86,0,0,1,6.86,16.93c-1.29-.64-2.6-1.24-3.92-1.79,1,6.68.54,13-3.3,20-1.76,0-6.4.4-7.58.55,2.7-5.32,3.75-13.77,3.16-18.75a29.54,29.54,0,0,1,2.63,3.72,27.63,27.63,0,0,0-4.05-14.26,35.43,35.43,0,0,1,4.52,3.21C323.19,205.35,318.15,198.54,313.05,195.24Z"/><path class="cls-24" d="M433.15,285.88,417.91,296.2l8.94,2.29L399,322.81l33.47-16C433.28,303.08,433.18,287.09,433.15,285.88Z"/></g></svg>